%TF.GenerationSoftware,KiCad,Pcbnew,(5.0.1)-4*%
%TF.CreationDate,2019-02-15T15:13:20-03:00*%
%TF.ProjectId,Principal,5072696E636970616C2E6B696361645F,rev?*%
%TF.SameCoordinates,Original*%
%TF.FileFunction,Plated,1,2,PTH,Drill*%
%TF.FilePolarity,Positive*%
%FSLAX46Y46*%
G04 Gerber Fmt 4.6, Leading zero omitted, Abs format (unit mm)*
G04 Created by KiCad (PCBNEW (5.0.1)-4) date 15/02/2019 15:13:20*
%MOMM*%
%LPD*%
G01*
G04 APERTURE LIST*
%TA.AperFunction,ComponentDrill*%
%ADD10C,0.800000*%
%TD*%
%TA.AperFunction,ComponentDrill*%
%ADD11C,0.900000*%
%TD*%
%TA.AperFunction,ComponentDrill*%
%ADD12C,1.000000*%
%TD*%
%TA.AperFunction,ComponentDrill*%
%ADD13C,1.520000*%
%TD*%
G04 APERTURE END LIST*
D10*
%TO.C,R3*%
X129540000Y-40640000D03*
%TO.C,R5*%
X105075001Y-66600999D03*
X105075001Y-76760999D03*
%TO.C,R2*%
X98575001Y-66600999D03*
X98575001Y-76760999D03*
%TO.C,R1*%
X98425000Y-61595000D03*
X108585000Y-61595000D03*
%TO.C,RV1*%
X195072000Y-82804000D03*
X195072000Y-85344000D03*
X195072000Y-87884000D03*
%TO.C,R7*%
X160020000Y-40640000D03*
X170180000Y-40640000D03*
%TO.C,R4*%
X101825001Y-66600999D03*
X101825001Y-76760999D03*
%TO.C,R3*%
X119380000Y-40640000D03*
%TO.C,R6*%
X108325001Y-66600999D03*
X108325001Y-76760999D03*
D11*
%TO.C,D1*%
X104140000Y-54356000D03*
X106680000Y-54356000D03*
D12*
%TO.C,J2*%
X173228000Y-81280000D03*
X173228000Y-83820000D03*
X173228000Y-86360000D03*
X173228000Y-88900000D03*
X173228000Y-91440000D03*
X173228000Y-93980000D03*
X173228000Y-96520000D03*
X173228000Y-99060000D03*
X173228000Y-101600000D03*
X173228000Y-104140000D03*
X173228000Y-106680000D03*
X173228000Y-109220000D03*
X173228000Y-111760000D03*
X173228000Y-114300000D03*
X173228000Y-116840000D03*
X173228000Y-119380000D03*
X173228000Y-121920000D03*
X173228000Y-124460000D03*
X173228000Y-127000000D03*
X173228000Y-129540000D03*
X173228000Y-132080000D03*
X173228000Y-134620000D03*
X173228000Y-137160000D03*
X173228000Y-139700000D03*
X173228000Y-142240000D03*
X175768000Y-81280000D03*
X175768000Y-83820000D03*
X175768000Y-86360000D03*
X175768000Y-88900000D03*
X175768000Y-91440000D03*
X175768000Y-93980000D03*
X175768000Y-96520000D03*
X175768000Y-99060000D03*
X175768000Y-101600000D03*
X175768000Y-104140000D03*
X175768000Y-106680000D03*
X175768000Y-109220000D03*
X175768000Y-111760000D03*
X175768000Y-114300000D03*
X175768000Y-116840000D03*
X175768000Y-119380000D03*
X175768000Y-121920000D03*
X175768000Y-124460000D03*
X175768000Y-127000000D03*
X175768000Y-129540000D03*
X175768000Y-132080000D03*
X175768000Y-134620000D03*
X175768000Y-137160000D03*
X175768000Y-139700000D03*
X175768000Y-142240000D03*
%TO.C,J1*%
X122428000Y-81280000D03*
X122428000Y-83820000D03*
X122428000Y-86360000D03*
X122428000Y-88900000D03*
X122428000Y-91440000D03*
X122428000Y-93980000D03*
X122428000Y-96520000D03*
X122428000Y-99060000D03*
X122428000Y-101600000D03*
X122428000Y-104140000D03*
X122428000Y-106680000D03*
X122428000Y-109220000D03*
X122428000Y-111760000D03*
X122428000Y-114300000D03*
X122428000Y-116840000D03*
X122428000Y-119380000D03*
X122428000Y-121920000D03*
X122428000Y-124460000D03*
X122428000Y-127000000D03*
X122428000Y-129540000D03*
X122428000Y-132080000D03*
X122428000Y-134620000D03*
X122428000Y-137160000D03*
X122428000Y-139700000D03*
X122428000Y-142240000D03*
X124968000Y-81280000D03*
X124968000Y-83820000D03*
X124968000Y-86360000D03*
X124968000Y-88900000D03*
X124968000Y-91440000D03*
X124968000Y-93980000D03*
X124968000Y-96520000D03*
X124968000Y-99060000D03*
X124968000Y-101600000D03*
X124968000Y-104140000D03*
X124968000Y-106680000D03*
X124968000Y-109220000D03*
X124968000Y-111760000D03*
X124968000Y-114300000D03*
X124968000Y-116840000D03*
X124968000Y-119380000D03*
X124968000Y-121920000D03*
X124968000Y-124460000D03*
X124968000Y-127000000D03*
X124968000Y-129540000D03*
X124968000Y-132080000D03*
X124968000Y-134620000D03*
X124968000Y-137160000D03*
X124968000Y-139700000D03*
X124968000Y-142240000D03*
%TO.C,J4*%
X103124000Y-98552000D03*
X103124000Y-101092000D03*
X103124000Y-103632000D03*
X103124000Y-106172000D03*
X103124000Y-108712000D03*
X103124000Y-111252000D03*
X103124000Y-113792000D03*
X103124000Y-116332000D03*
%TO.C,J6*%
X195072000Y-93980000D03*
X195072000Y-96520000D03*
X195072000Y-99060000D03*
X195072000Y-101600000D03*
X195072000Y-104140000D03*
X195072000Y-106680000D03*
X195072000Y-109220000D03*
X195072000Y-111760000D03*
X195072000Y-114300000D03*
X195072000Y-116840000D03*
X195072000Y-119380000D03*
X195072000Y-121920000D03*
X195072000Y-124460000D03*
X195072000Y-127000000D03*
X195072000Y-129540000D03*
X195072000Y-132080000D03*
D13*
%TO.C,J5*%
X160020000Y-33274000D03*
X165100000Y-33274000D03*
X170180000Y-33274000D03*
%TO.C,J8*%
X101600000Y-33020000D03*
X106680000Y-33020000D03*
%TO.C,J3*%
X119380000Y-33274000D03*
X124460000Y-33274000D03*
X129540000Y-33274000D03*
%TO.C,J7*%
X139700000Y-33274000D03*
X144780000Y-33274000D03*
X149860000Y-33274000D03*
M02*
