M48
;DRILL file {KiCad (5.0.1)-4} date 11/10/2019 14:22:48
;FORMAT={-:-/ absolute / inch / decimal}
FMAT,2
INCH,TZ
T1C0.0276
T2C0.0315
T3C0.0354
T4C0.0394
T5C0.0433
T6C0.0598
%
G90
G05
M72
T1
X1.26Y-3.96
X1.26Y-4.14
X1.6Y-4.14
X1.62Y-3.96
X1.94Y-1.26
X2.3Y-1.26
X2.74Y-2.64
X2.74Y-3.1
X3.84Y-1.26
X3.84Y-2.12
X4.84Y-3.6
X4.84Y-4.04
T2
X1.7Y-6.08
X2.1Y-6.08
X0.84Y-5.54
X0.84Y-5.94
X5.08Y-3.6
X5.08Y-3.7
X5.08Y-3.8
X0.98Y-5.54
X0.98Y-5.94
X1.78Y-6.22
X2.18Y-6.22
X2.3Y-1.12
X2.3Y-1.52
X1.88Y-6.36
X2.28Y-6.36
X1.26Y-5.54
X1.26Y-5.94
X1.12Y-5.54
X1.12Y-5.94
X2.7Y-1.1
X2.7Y-1.5
X3.02Y-6.68
X3.42Y-6.68
X4.26Y-1.12
X4.26Y-1.52
T3
X2.96Y-1.5
X3.06Y-1.5
T4
X3.4231Y-1.12
X3.62Y-1.12
X4.22Y-3.44
X4.22Y-3.54
X4.22Y-3.64
X4.22Y-3.74
X4.22Y-3.84
X4.22Y-3.94
X4.22Y-4.04
X4.22Y-4.14
X4.22Y-4.24
X4.22Y-4.34
X4.22Y-4.44
X4.22Y-4.54
X4.22Y-4.64
X4.22Y-4.74
X4.22Y-4.84
X4.22Y-4.94
X4.22Y-5.04
X4.22Y-5.14
X4.22Y-5.24
X4.22Y-5.34
X4.22Y-5.44
X4.22Y-5.54
X4.22Y-5.64
X4.22Y-5.74
X4.22Y-5.84
X4.32Y-3.44
X4.32Y-3.54
X4.32Y-3.64
X4.32Y-3.74
X4.32Y-3.84
X4.32Y-3.94
X4.32Y-4.04
X4.32Y-4.14
X4.32Y-4.24
X4.32Y-4.34
X4.32Y-4.44
X4.32Y-4.54
X4.32Y-4.64
X4.32Y-4.74
X4.32Y-4.84
X4.32Y-4.94
X4.32Y-5.04
X4.32Y-5.14
X4.32Y-5.24
X4.32Y-5.34
X4.32Y-5.44
X4.32Y-5.54
X4.32Y-5.64
X4.32Y-5.74
X4.32Y-5.84
X3.42Y-1.48
X3.6169Y-1.48
X1.2672Y-2.8167
X1.2672Y-2.9167
X1.2672Y-3.0167
X1.2672Y-3.1167
X1.2672Y-3.2167
X1.2672Y-3.3167
X1.2672Y-3.4167
X1.2672Y-3.5167
X1.3672Y-2.8167
X1.3672Y-2.9167
X1.3672Y-3.0167
X1.3672Y-3.1167
X1.3672Y-3.2167
X1.3672Y-3.3167
X1.3672Y-3.4167
X1.3672Y-3.5167
X2.22Y-3.44
X2.22Y-3.54
X2.22Y-3.64
X2.22Y-3.74
X2.22Y-3.84
X2.22Y-3.94
X2.22Y-4.04
X2.22Y-4.14
X2.22Y-4.24
X2.22Y-4.34
X2.22Y-4.44
X2.22Y-4.54
X2.22Y-4.64
X2.22Y-4.74
X2.22Y-4.84
X2.22Y-4.94
X2.22Y-5.04
X2.22Y-5.14
X2.22Y-5.24
X2.22Y-5.34
X2.22Y-5.44
X2.22Y-5.54
X2.22Y-5.64
X2.22Y-5.74
X2.22Y-5.84
X2.32Y-3.44
X2.32Y-3.54
X2.32Y-3.64
X2.32Y-3.74
X2.32Y-3.84
X2.32Y-3.94
X2.32Y-4.04
X2.32Y-4.14
X2.32Y-4.24
X2.32Y-4.34
X2.32Y-4.44
X2.32Y-4.54
X2.32Y-4.64
X2.32Y-4.74
X2.32Y-4.84
X2.32Y-4.94
X2.32Y-5.04
X2.32Y-5.14
X2.32Y-5.24
X2.32Y-5.34
X2.32Y-5.44
X2.32Y-5.54
X2.32Y-5.64
X2.32Y-5.74
X2.32Y-5.84
X1.04Y-4.34
X1.04Y-4.44
X1.04Y-4.54
X1.04Y-4.64
X1.04Y-4.74
X1.04Y-4.84
X1.04Y-4.94
X1.04Y-5.04
X1.14Y-4.34
X1.14Y-4.44
X1.14Y-4.54
X1.14Y-4.64
X1.14Y-4.74
X1.14Y-4.84
X1.14Y-4.94
X1.14Y-5.04
X5.04Y-3.94
X5.04Y-4.04
X5.04Y-4.14
X5.04Y-4.24
X5.04Y-4.34
X5.04Y-4.44
X5.04Y-4.54
X5.04Y-4.64
X5.04Y-4.74
X5.04Y-4.84
X5.04Y-4.94
X5.04Y-5.04
X5.04Y-5.14
X5.04Y-5.24
X5.04Y-5.34
X5.04Y-5.44
X5.04Y-5.54
X5.04Y-5.64
X5.04Y-5.74
X5.04Y-5.84
X5.14Y-3.94
X5.14Y-4.04
X5.14Y-4.14
X5.14Y-4.24
X5.14Y-4.34
X5.14Y-4.44
X5.14Y-4.54
X5.14Y-4.64
X5.14Y-4.74
X5.14Y-4.84
X5.14Y-4.94
X5.14Y-5.04
X5.14Y-5.14
X5.14Y-5.24
X5.14Y-5.34
X5.14Y-5.44
X5.14Y-5.54
X5.14Y-5.64
X5.14Y-5.74
X5.14Y-5.84
T5
X3.42Y-1.26
X3.52Y-1.26
X3.62Y-1.26
T6
X1.5Y-6.58
X1.7Y-6.58
X4.06Y-0.88
X4.26Y-0.88
X4.46Y-0.88
X3.41Y-0.88
X3.61Y-0.88
X2.1Y-0.88
X2.3Y-0.88
X2.5Y-0.88
X2.34Y-6.58
X2.54Y-6.58
X1.92Y-6.58
X2.12Y-6.58
X1.08Y-6.58
X1.28Y-6.58
T4
X2.875Y-1.0975G85X2.875Y-1.1763
G05
X3.0994Y-1.0188G85X3.0206Y-1.0188
G05
X3.0994Y-1.255G85X3.0206Y-1.255
G05
T0
M30
