G04 #@! TF.GenerationSoftware,KiCad,Pcbnew,(5.0.1)-4*
G04 #@! TF.CreationDate,2019-10-11T14:23:10-03:00*
G04 #@! TF.ProjectId,Principal,5072696E636970616C2E6B696361645F,rev?*
G04 #@! TF.SameCoordinates,Original*
G04 #@! TF.FileFunction,Legend,Top*
G04 #@! TF.FilePolarity,Positive*
%FSLAX46Y46*%
G04 Gerber Fmt 4.6, Leading zero omitted, Abs format (unit mm)*
G04 Created by KiCad (PCBNEW (5.0.1)-4) date 11/10/2019 14:23:10*
%MOMM*%
%LPD*%
G01*
G04 APERTURE LIST*
%ADD10C,0.120000*%
%ADD11C,0.150000*%
G04 APERTURE END LIST*
D10*
G04 #@! TO.C,J6*
X30286000Y-129346000D02*
X27686000Y-129346000D01*
X30286000Y-129346000D02*
X30286000Y-108906000D01*
X30286000Y-108906000D02*
X25086000Y-108906000D01*
X25086000Y-126746000D02*
X25086000Y-108906000D01*
X27686000Y-126746000D02*
X25086000Y-126746000D01*
X27686000Y-129346000D02*
X27686000Y-126746000D01*
X25086000Y-129346000D02*
X25086000Y-128016000D01*
X26416000Y-129346000D02*
X25086000Y-129346000D01*
G04 #@! TO.C,C1*
X85578000Y-29818000D02*
X85578000Y-27078000D01*
X93318000Y-29818000D02*
X93318000Y-27078000D01*
X93318000Y-27078000D02*
X85578000Y-27078000D01*
X93318000Y-29818000D02*
X85578000Y-29818000D01*
G04 #@! TO.C,C2*
X85498000Y-36222000D02*
X93238000Y-36222000D01*
X85498000Y-38962000D02*
X93238000Y-38962000D01*
X85498000Y-36222000D02*
X85498000Y-38962000D01*
X93238000Y-36222000D02*
X93238000Y-38962000D01*
G04 #@! TO.C,D1*
X79444000Y-38100462D02*
G75*
G03X73894000Y-36555170I-2990000J462D01*
G01*
X79444000Y-38099538D02*
G75*
G02X73894000Y-39644830I-2990000J-462D01*
G01*
X78954000Y-38100000D02*
G75*
G03X78954000Y-38100000I-2500000J0D01*
G01*
X73894000Y-36555000D02*
X73894000Y-39645000D01*
G04 #@! TO.C,J1*
X55058000Y-86046000D02*
X56388000Y-86046000D01*
X55058000Y-87376000D02*
X55058000Y-86046000D01*
X57658000Y-86046000D02*
X60258000Y-86046000D01*
X57658000Y-88646000D02*
X57658000Y-86046000D01*
X55058000Y-88646000D02*
X57658000Y-88646000D01*
X60258000Y-86046000D02*
X60258000Y-149666000D01*
X55058000Y-88646000D02*
X55058000Y-149666000D01*
X55058000Y-149666000D02*
X60258000Y-149666000D01*
G04 #@! TO.C,J2*
X105858000Y-149666000D02*
X111058000Y-149666000D01*
X105858000Y-88646000D02*
X105858000Y-149666000D01*
X111058000Y-86046000D02*
X111058000Y-149666000D01*
X105858000Y-88646000D02*
X108458000Y-88646000D01*
X108458000Y-88646000D02*
X108458000Y-86046000D01*
X108458000Y-86046000D02*
X111058000Y-86046000D01*
X105858000Y-87376000D02*
X105858000Y-86046000D01*
X105858000Y-86046000D02*
X107188000Y-86046000D01*
G04 #@! TO.C,J3*
X50800000Y-26162000D02*
X50800000Y-18542000D01*
X66040000Y-26162000D02*
X66040000Y-18542000D01*
X50800000Y-24892000D02*
X66040000Y-24892000D01*
X50800000Y-18542000D02*
X66040000Y-18542000D01*
X50800000Y-26162000D02*
X66040000Y-26162000D01*
G04 #@! TO.C,J4*
X94234000Y-24892000D02*
X84074000Y-24892000D01*
X94234000Y-26162000D02*
X94234000Y-18542000D01*
X94234000Y-18542000D02*
X84074000Y-18542000D01*
X84074000Y-18542000D02*
X84074000Y-26162000D01*
X84074000Y-26162000D02*
X94234000Y-26162000D01*
G04 #@! TO.C,J5*
X100584000Y-26162000D02*
X115824000Y-26162000D01*
X100584000Y-18542000D02*
X115824000Y-18542000D01*
X100584000Y-24892000D02*
X115824000Y-24892000D01*
X115824000Y-26162000D02*
X115824000Y-18542000D01*
X100584000Y-26162000D02*
X100584000Y-18542000D01*
G04 #@! TO.C,J9*
X81474000Y-32977000D02*
X82524000Y-32977000D01*
X82524000Y-31927000D02*
X82524000Y-32977000D01*
X73124000Y-26877000D02*
X73124000Y-18077000D01*
X73124000Y-18077000D02*
X82324000Y-18077000D01*
X75824000Y-32777000D02*
X73124000Y-32777000D01*
X73124000Y-32777000D02*
X73124000Y-30877000D01*
X82324000Y-18077000D02*
X82324000Y-32777000D01*
X82324000Y-32777000D02*
X79724000Y-32777000D01*
G04 #@! TO.C,R1*
X68580000Y-28980000D02*
X68580000Y-29750000D01*
X68580000Y-37060000D02*
X68580000Y-36290000D01*
X67210000Y-29750000D02*
X67210000Y-36290000D01*
X69950000Y-29750000D02*
X67210000Y-29750000D01*
X69950000Y-36290000D02*
X69950000Y-29750000D01*
X67210000Y-36290000D02*
X69950000Y-36290000D01*
G04 #@! TO.C,R2*
X32004000Y-149836000D02*
X32004000Y-149066000D01*
X32004000Y-141756000D02*
X32004000Y-142526000D01*
X33374000Y-149066000D02*
X33374000Y-142526000D01*
X30634000Y-149066000D02*
X33374000Y-149066000D01*
X30634000Y-142526000D02*
X30634000Y-149066000D01*
X33374000Y-142526000D02*
X30634000Y-142526000D01*
G04 #@! TO.C,R3*
X57050000Y-36798000D02*
X59790000Y-36798000D01*
X59790000Y-36798000D02*
X59790000Y-30258000D01*
X59790000Y-30258000D02*
X57050000Y-30258000D01*
X57050000Y-30258000D02*
X57050000Y-36798000D01*
X58420000Y-37568000D02*
X58420000Y-36798000D01*
X58420000Y-29488000D02*
X58420000Y-30258000D01*
G04 #@! TO.C,R4*
X29818000Y-142526000D02*
X27078000Y-142526000D01*
X27078000Y-142526000D02*
X27078000Y-149066000D01*
X27078000Y-149066000D02*
X29818000Y-149066000D01*
X29818000Y-149066000D02*
X29818000Y-142526000D01*
X28448000Y-141756000D02*
X28448000Y-142526000D01*
X28448000Y-149836000D02*
X28448000Y-149066000D01*
G04 #@! TO.C,R5*
X24892000Y-149836000D02*
X24892000Y-149066000D01*
X24892000Y-141756000D02*
X24892000Y-142526000D01*
X26262000Y-149066000D02*
X26262000Y-142526000D01*
X23522000Y-149066000D02*
X26262000Y-149066000D01*
X23522000Y-142526000D02*
X23522000Y-149066000D01*
X26262000Y-142526000D02*
X23522000Y-142526000D01*
G04 #@! TO.C,R6*
X22706000Y-142526000D02*
X19966000Y-142526000D01*
X19966000Y-142526000D02*
X19966000Y-149066000D01*
X19966000Y-149066000D02*
X22706000Y-149066000D01*
X22706000Y-149066000D02*
X22706000Y-142526000D01*
X21336000Y-141756000D02*
X21336000Y-142526000D01*
X21336000Y-149836000D02*
X21336000Y-149066000D01*
G04 #@! TO.C,R7*
X106834000Y-36798000D02*
X109574000Y-36798000D01*
X109574000Y-36798000D02*
X109574000Y-30258000D01*
X109574000Y-30258000D02*
X106834000Y-30258000D01*
X106834000Y-30258000D02*
X106834000Y-36798000D01*
X108204000Y-37568000D02*
X108204000Y-36798000D01*
X108204000Y-29488000D02*
X108204000Y-30258000D01*
G04 #@! TO.C,R8*
X85058000Y-171042000D02*
X85058000Y-168302000D01*
X85058000Y-168302000D02*
X78518000Y-168302000D01*
X78518000Y-168302000D02*
X78518000Y-171042000D01*
X78518000Y-171042000D02*
X85058000Y-171042000D01*
X85828000Y-169672000D02*
X85058000Y-169672000D01*
X77748000Y-169672000D02*
X78518000Y-169672000D01*
G04 #@! TO.C,R9*
X48792000Y-161544000D02*
X49562000Y-161544000D01*
X56872000Y-161544000D02*
X56102000Y-161544000D01*
X49562000Y-162914000D02*
X56102000Y-162914000D01*
X49562000Y-160174000D02*
X49562000Y-162914000D01*
X56102000Y-160174000D02*
X49562000Y-160174000D01*
X56102000Y-162914000D02*
X56102000Y-160174000D01*
G04 #@! TO.C,R10*
X53562000Y-159358000D02*
X53562000Y-156618000D01*
X53562000Y-156618000D02*
X47022000Y-156618000D01*
X47022000Y-156618000D02*
X47022000Y-159358000D01*
X47022000Y-159358000D02*
X53562000Y-159358000D01*
X54332000Y-157988000D02*
X53562000Y-157988000D01*
X46252000Y-157988000D02*
X47022000Y-157988000D01*
G04 #@! TO.C,R11*
X44220000Y-154432000D02*
X44990000Y-154432000D01*
X52300000Y-154432000D02*
X51530000Y-154432000D01*
X44990000Y-155802000D02*
X51530000Y-155802000D01*
X44990000Y-153062000D02*
X44990000Y-155802000D01*
X51530000Y-153062000D02*
X44990000Y-153062000D01*
X51530000Y-155802000D02*
X51530000Y-153062000D01*
G04 #@! TO.C,RV1*
X126752000Y-97455000D02*
X126752000Y-90505000D01*
X131492000Y-97455000D02*
X131492000Y-90505000D01*
X126752000Y-97455000D02*
X128538000Y-97455000D01*
X129528000Y-97455000D02*
X131492000Y-97455000D01*
X126752000Y-90505000D02*
X128538000Y-90505000D01*
X129528000Y-90505000D02*
X131492000Y-90505000D01*
G04 #@! TO.C,SW1*
X67056000Y-163322000D02*
X56896000Y-163322000D01*
X67056000Y-170942000D02*
X67056000Y-163322000D01*
X56896000Y-170942000D02*
X67056000Y-170942000D01*
X56896000Y-163322000D02*
X56896000Y-170942000D01*
X56896000Y-164592000D02*
X67056000Y-164592000D01*
G04 #@! TO.C,SW2*
X46228000Y-164592000D02*
X56388000Y-164592000D01*
X46228000Y-163322000D02*
X46228000Y-170942000D01*
X46228000Y-170942000D02*
X56388000Y-170942000D01*
X56388000Y-170942000D02*
X56388000Y-163322000D01*
X56388000Y-163322000D02*
X46228000Y-163322000D01*
G04 #@! TO.C,SW3*
X45720000Y-163322000D02*
X35560000Y-163322000D01*
X45720000Y-170942000D02*
X45720000Y-163322000D01*
X35560000Y-170942000D02*
X45720000Y-170942000D01*
X35560000Y-163322000D02*
X35560000Y-170942000D01*
X35560000Y-164592000D02*
X45720000Y-164592000D01*
G04 #@! TO.C,SW4*
X24892000Y-164592000D02*
X35052000Y-164592000D01*
X24892000Y-163322000D02*
X24892000Y-170942000D01*
X24892000Y-170942000D02*
X35052000Y-170942000D01*
X35052000Y-170942000D02*
X35052000Y-163322000D01*
X35052000Y-163322000D02*
X24892000Y-163322000D01*
G04 #@! TO.C,U1*
X94528000Y-35274000D02*
X84288000Y-35274000D01*
X94528000Y-30633000D02*
X84288000Y-30633000D01*
X94528000Y-35274000D02*
X94528000Y-30633000D01*
X84288000Y-35274000D02*
X84288000Y-30633000D01*
X94528000Y-33764000D02*
X84288000Y-33764000D01*
X91258000Y-35274000D02*
X91258000Y-33764000D01*
X87557000Y-35274000D02*
X87557000Y-33764000D01*
G04 #@! TO.C,J7*
X126686000Y-98746000D02*
X129286000Y-98746000D01*
X126686000Y-98746000D02*
X126686000Y-149666000D01*
X126686000Y-149666000D02*
X131886000Y-149666000D01*
X131886000Y-101346000D02*
X131886000Y-149666000D01*
X129286000Y-101346000D02*
X131886000Y-101346000D01*
X129286000Y-98746000D02*
X129286000Y-101346000D01*
X131886000Y-98746000D02*
X131886000Y-100076000D01*
X130556000Y-98746000D02*
X131886000Y-98746000D01*
G04 #@! TO.C,J8*
X32187222Y-90654199D02*
X30857222Y-90654199D01*
X30857222Y-90654199D02*
X30857222Y-89324199D01*
X33457222Y-90654199D02*
X33457222Y-88054199D01*
X33457222Y-88054199D02*
X30857222Y-88054199D01*
X30857222Y-88054199D02*
X30857222Y-70214199D01*
X36057222Y-70214199D02*
X30857222Y-70214199D01*
X36057222Y-90654199D02*
X36057222Y-70214199D01*
X36057222Y-90654199D02*
X33457222Y-90654199D01*
G04 #@! TO.C,J6*
D11*
X27352666Y-130238380D02*
X27352666Y-130952666D01*
X27305047Y-131095523D01*
X27209809Y-131190761D01*
X27066952Y-131238380D01*
X26971714Y-131238380D01*
X28257428Y-130238380D02*
X28066952Y-130238380D01*
X27971714Y-130286000D01*
X27924095Y-130333619D01*
X27828857Y-130476476D01*
X27781238Y-130666952D01*
X27781238Y-131047904D01*
X27828857Y-131143142D01*
X27876476Y-131190761D01*
X27971714Y-131238380D01*
X28162190Y-131238380D01*
X28257428Y-131190761D01*
X28305047Y-131143142D01*
X28352666Y-131047904D01*
X28352666Y-130809809D01*
X28305047Y-130714571D01*
X28257428Y-130666952D01*
X28162190Y-130619333D01*
X27971714Y-130619333D01*
X27876476Y-130666952D01*
X27828857Y-130714571D01*
X27781238Y-130809809D01*
G04 #@! TO.C,C1*
X89281333Y-31305142D02*
X89233714Y-31352761D01*
X89090857Y-31400380D01*
X88995619Y-31400380D01*
X88852761Y-31352761D01*
X88757523Y-31257523D01*
X88709904Y-31162285D01*
X88662285Y-30971809D01*
X88662285Y-30828952D01*
X88709904Y-30638476D01*
X88757523Y-30543238D01*
X88852761Y-30448000D01*
X88995619Y-30400380D01*
X89090857Y-30400380D01*
X89233714Y-30448000D01*
X89281333Y-30495619D01*
X90233714Y-31400380D02*
X89662285Y-31400380D01*
X89948000Y-31400380D02*
X89948000Y-30400380D01*
X89852761Y-30543238D01*
X89757523Y-30638476D01*
X89662285Y-30686095D01*
G04 #@! TO.C,C2*
X89201333Y-35449142D02*
X89153714Y-35496761D01*
X89010857Y-35544380D01*
X88915619Y-35544380D01*
X88772761Y-35496761D01*
X88677523Y-35401523D01*
X88629904Y-35306285D01*
X88582285Y-35115809D01*
X88582285Y-34972952D01*
X88629904Y-34782476D01*
X88677523Y-34687238D01*
X88772761Y-34592000D01*
X88915619Y-34544380D01*
X89010857Y-34544380D01*
X89153714Y-34592000D01*
X89201333Y-34639619D01*
X89582285Y-34639619D02*
X89629904Y-34592000D01*
X89725142Y-34544380D01*
X89963238Y-34544380D01*
X90058476Y-34592000D01*
X90106095Y-34639619D01*
X90153714Y-34734857D01*
X90153714Y-34830095D01*
X90106095Y-34972952D01*
X89534666Y-35544380D01*
X90153714Y-35544380D01*
G04 #@! TO.C,D1*
X75715904Y-34592380D02*
X75715904Y-33592380D01*
X75954000Y-33592380D01*
X76096857Y-33640000D01*
X76192095Y-33735238D01*
X76239714Y-33830476D01*
X76287333Y-34020952D01*
X76287333Y-34163809D01*
X76239714Y-34354285D01*
X76192095Y-34449523D01*
X76096857Y-34544761D01*
X75954000Y-34592380D01*
X75715904Y-34592380D01*
X77239714Y-34592380D02*
X76668285Y-34592380D01*
X76954000Y-34592380D02*
X76954000Y-33592380D01*
X76858761Y-33735238D01*
X76763523Y-33830476D01*
X76668285Y-33878095D01*
G04 #@! TO.C,J1*
X57324666Y-84498380D02*
X57324666Y-85212666D01*
X57277047Y-85355523D01*
X57181809Y-85450761D01*
X57038952Y-85498380D01*
X56943714Y-85498380D01*
X58324666Y-85498380D02*
X57753238Y-85498380D01*
X58038952Y-85498380D02*
X58038952Y-84498380D01*
X57943714Y-84641238D01*
X57848476Y-84736476D01*
X57753238Y-84784095D01*
G04 #@! TO.C,J2*
X108124666Y-84498380D02*
X108124666Y-85212666D01*
X108077047Y-85355523D01*
X107981809Y-85450761D01*
X107838952Y-85498380D01*
X107743714Y-85498380D01*
X108553238Y-84593619D02*
X108600857Y-84546000D01*
X108696095Y-84498380D01*
X108934190Y-84498380D01*
X109029428Y-84546000D01*
X109077047Y-84593619D01*
X109124666Y-84688857D01*
X109124666Y-84784095D01*
X109077047Y-84926952D01*
X108505619Y-85498380D01*
X109124666Y-85498380D01*
G04 #@! TO.C,J3*
X58056666Y-17154380D02*
X58056666Y-17868666D01*
X58009047Y-18011523D01*
X57913809Y-18106761D01*
X57770952Y-18154380D01*
X57675714Y-18154380D01*
X58437619Y-17154380D02*
X59056666Y-17154380D01*
X58723333Y-17535333D01*
X58866190Y-17535333D01*
X58961428Y-17582952D01*
X59009047Y-17630571D01*
X59056666Y-17725809D01*
X59056666Y-17963904D01*
X59009047Y-18059142D01*
X58961428Y-18106761D01*
X58866190Y-18154380D01*
X58580476Y-18154380D01*
X58485238Y-18106761D01*
X58437619Y-18059142D01*
G04 #@! TO.C,J4*
X88820666Y-16724380D02*
X88820666Y-17438666D01*
X88773047Y-17581523D01*
X88677809Y-17676761D01*
X88534952Y-17724380D01*
X88439714Y-17724380D01*
X89725428Y-17057714D02*
X89725428Y-17724380D01*
X89487333Y-16676761D02*
X89249238Y-17391047D01*
X89868285Y-17391047D01*
G04 #@! TO.C,J5*
X107840666Y-17154380D02*
X107840666Y-17868666D01*
X107793047Y-18011523D01*
X107697809Y-18106761D01*
X107554952Y-18154380D01*
X107459714Y-18154380D01*
X108793047Y-17154380D02*
X108316857Y-17154380D01*
X108269238Y-17630571D01*
X108316857Y-17582952D01*
X108412095Y-17535333D01*
X108650190Y-17535333D01*
X108745428Y-17582952D01*
X108793047Y-17630571D01*
X108840666Y-17725809D01*
X108840666Y-17963904D01*
X108793047Y-18059142D01*
X108745428Y-18106761D01*
X108650190Y-18154380D01*
X108412095Y-18154380D01*
X108316857Y-18106761D01*
X108269238Y-18059142D01*
G04 #@! TO.C,J9*
X71426380Y-23760333D02*
X72140666Y-23760333D01*
X72283523Y-23807952D01*
X72378761Y-23903190D01*
X72426380Y-24046047D01*
X72426380Y-24141285D01*
X72426380Y-23236523D02*
X72426380Y-23046047D01*
X72378761Y-22950809D01*
X72331142Y-22903190D01*
X72188285Y-22807952D01*
X71997809Y-22760333D01*
X71616857Y-22760333D01*
X71521619Y-22807952D01*
X71474000Y-22855571D01*
X71426380Y-22950809D01*
X71426380Y-23141285D01*
X71474000Y-23236523D01*
X71521619Y-23284142D01*
X71616857Y-23331761D01*
X71854952Y-23331761D01*
X71950190Y-23284142D01*
X71997809Y-23236523D01*
X72045428Y-23141285D01*
X72045428Y-22950809D01*
X71997809Y-22855571D01*
X71950190Y-22807952D01*
X71854952Y-22760333D01*
G04 #@! TO.C,R1*
X66662380Y-33186666D02*
X66186190Y-33520000D01*
X66662380Y-33758095D02*
X65662380Y-33758095D01*
X65662380Y-33377142D01*
X65710000Y-33281904D01*
X65757619Y-33234285D01*
X65852857Y-33186666D01*
X65995714Y-33186666D01*
X66090952Y-33234285D01*
X66138571Y-33281904D01*
X66186190Y-33377142D01*
X66186190Y-33758095D01*
X66662380Y-32234285D02*
X66662380Y-32805714D01*
X66662380Y-32520000D02*
X65662380Y-32520000D01*
X65805238Y-32615238D01*
X65900476Y-32710476D01*
X65948095Y-32805714D01*
G04 #@! TO.C,R2*
X34826380Y-145962666D02*
X34350190Y-146296000D01*
X34826380Y-146534095D02*
X33826380Y-146534095D01*
X33826380Y-146153142D01*
X33874000Y-146057904D01*
X33921619Y-146010285D01*
X34016857Y-145962666D01*
X34159714Y-145962666D01*
X34254952Y-146010285D01*
X34302571Y-146057904D01*
X34350190Y-146153142D01*
X34350190Y-146534095D01*
X33921619Y-145581714D02*
X33874000Y-145534095D01*
X33826380Y-145438857D01*
X33826380Y-145200761D01*
X33874000Y-145105523D01*
X33921619Y-145057904D01*
X34016857Y-145010285D01*
X34112095Y-145010285D01*
X34254952Y-145057904D01*
X34826380Y-145629333D01*
X34826380Y-145010285D01*
G04 #@! TO.C,R3*
X56502380Y-33694666D02*
X56026190Y-34028000D01*
X56502380Y-34266095D02*
X55502380Y-34266095D01*
X55502380Y-33885142D01*
X55550000Y-33789904D01*
X55597619Y-33742285D01*
X55692857Y-33694666D01*
X55835714Y-33694666D01*
X55930952Y-33742285D01*
X55978571Y-33789904D01*
X56026190Y-33885142D01*
X56026190Y-34266095D01*
X55502380Y-33361333D02*
X55502380Y-32742285D01*
X55883333Y-33075619D01*
X55883333Y-32932761D01*
X55930952Y-32837523D01*
X55978571Y-32789904D01*
X56073809Y-32742285D01*
X56311904Y-32742285D01*
X56407142Y-32789904D01*
X56454761Y-32837523D01*
X56502380Y-32932761D01*
X56502380Y-33218476D01*
X56454761Y-33313714D01*
X56407142Y-33361333D01*
G04 #@! TO.C,R4*
X31270380Y-145962666D02*
X30794190Y-146296000D01*
X31270380Y-146534095D02*
X30270380Y-146534095D01*
X30270380Y-146153142D01*
X30318000Y-146057904D01*
X30365619Y-146010285D01*
X30460857Y-145962666D01*
X30603714Y-145962666D01*
X30698952Y-146010285D01*
X30746571Y-146057904D01*
X30794190Y-146153142D01*
X30794190Y-146534095D01*
X30603714Y-145105523D02*
X31270380Y-145105523D01*
X30222761Y-145343619D02*
X30937047Y-145581714D01*
X30937047Y-144962666D01*
G04 #@! TO.C,R5*
X27714380Y-145962666D02*
X27238190Y-146296000D01*
X27714380Y-146534095D02*
X26714380Y-146534095D01*
X26714380Y-146153142D01*
X26762000Y-146057904D01*
X26809619Y-146010285D01*
X26904857Y-145962666D01*
X27047714Y-145962666D01*
X27142952Y-146010285D01*
X27190571Y-146057904D01*
X27238190Y-146153142D01*
X27238190Y-146534095D01*
X26714380Y-145057904D02*
X26714380Y-145534095D01*
X27190571Y-145581714D01*
X27142952Y-145534095D01*
X27095333Y-145438857D01*
X27095333Y-145200761D01*
X27142952Y-145105523D01*
X27190571Y-145057904D01*
X27285809Y-145010285D01*
X27523904Y-145010285D01*
X27619142Y-145057904D01*
X27666761Y-145105523D01*
X27714380Y-145200761D01*
X27714380Y-145438857D01*
X27666761Y-145534095D01*
X27619142Y-145581714D01*
G04 #@! TO.C,R6*
X24158380Y-145962666D02*
X23682190Y-146296000D01*
X24158380Y-146534095D02*
X23158380Y-146534095D01*
X23158380Y-146153142D01*
X23206000Y-146057904D01*
X23253619Y-146010285D01*
X23348857Y-145962666D01*
X23491714Y-145962666D01*
X23586952Y-146010285D01*
X23634571Y-146057904D01*
X23682190Y-146153142D01*
X23682190Y-146534095D01*
X23158380Y-145105523D02*
X23158380Y-145296000D01*
X23206000Y-145391238D01*
X23253619Y-145438857D01*
X23396476Y-145534095D01*
X23586952Y-145581714D01*
X23967904Y-145581714D01*
X24063142Y-145534095D01*
X24110761Y-145486476D01*
X24158380Y-145391238D01*
X24158380Y-145200761D01*
X24110761Y-145105523D01*
X24063142Y-145057904D01*
X23967904Y-145010285D01*
X23729809Y-145010285D01*
X23634571Y-145057904D01*
X23586952Y-145105523D01*
X23539333Y-145200761D01*
X23539333Y-145391238D01*
X23586952Y-145486476D01*
X23634571Y-145534095D01*
X23729809Y-145581714D01*
G04 #@! TO.C,R7*
X106286380Y-33694666D02*
X105810190Y-34028000D01*
X106286380Y-34266095D02*
X105286380Y-34266095D01*
X105286380Y-33885142D01*
X105334000Y-33789904D01*
X105381619Y-33742285D01*
X105476857Y-33694666D01*
X105619714Y-33694666D01*
X105714952Y-33742285D01*
X105762571Y-33789904D01*
X105810190Y-33885142D01*
X105810190Y-34266095D01*
X105286380Y-33361333D02*
X105286380Y-32694666D01*
X106286380Y-33123238D01*
G04 #@! TO.C,R8*
X81621333Y-172494380D02*
X81288000Y-172018190D01*
X81049904Y-172494380D02*
X81049904Y-171494380D01*
X81430857Y-171494380D01*
X81526095Y-171542000D01*
X81573714Y-171589619D01*
X81621333Y-171684857D01*
X81621333Y-171827714D01*
X81573714Y-171922952D01*
X81526095Y-171970571D01*
X81430857Y-172018190D01*
X81049904Y-172018190D01*
X82192761Y-171922952D02*
X82097523Y-171875333D01*
X82049904Y-171827714D01*
X82002285Y-171732476D01*
X82002285Y-171684857D01*
X82049904Y-171589619D01*
X82097523Y-171542000D01*
X82192761Y-171494380D01*
X82383238Y-171494380D01*
X82478476Y-171542000D01*
X82526095Y-171589619D01*
X82573714Y-171684857D01*
X82573714Y-171732476D01*
X82526095Y-171827714D01*
X82478476Y-171875333D01*
X82383238Y-171922952D01*
X82192761Y-171922952D01*
X82097523Y-171970571D01*
X82049904Y-172018190D01*
X82002285Y-172113428D01*
X82002285Y-172303904D01*
X82049904Y-172399142D01*
X82097523Y-172446761D01*
X82192761Y-172494380D01*
X82383238Y-172494380D01*
X82478476Y-172446761D01*
X82526095Y-172399142D01*
X82573714Y-172303904D01*
X82573714Y-172113428D01*
X82526095Y-172018190D01*
X82478476Y-171970571D01*
X82383238Y-171922952D01*
G04 #@! TO.C,R9*
X52665333Y-164366380D02*
X52332000Y-163890190D01*
X52093904Y-164366380D02*
X52093904Y-163366380D01*
X52474857Y-163366380D01*
X52570095Y-163414000D01*
X52617714Y-163461619D01*
X52665333Y-163556857D01*
X52665333Y-163699714D01*
X52617714Y-163794952D01*
X52570095Y-163842571D01*
X52474857Y-163890190D01*
X52093904Y-163890190D01*
X53141523Y-164366380D02*
X53332000Y-164366380D01*
X53427238Y-164318761D01*
X53474857Y-164271142D01*
X53570095Y-164128285D01*
X53617714Y-163937809D01*
X53617714Y-163556857D01*
X53570095Y-163461619D01*
X53522476Y-163414000D01*
X53427238Y-163366380D01*
X53236761Y-163366380D01*
X53141523Y-163414000D01*
X53093904Y-163461619D01*
X53046285Y-163556857D01*
X53046285Y-163794952D01*
X53093904Y-163890190D01*
X53141523Y-163937809D01*
X53236761Y-163985428D01*
X53427238Y-163985428D01*
X53522476Y-163937809D01*
X53570095Y-163890190D01*
X53617714Y-163794952D01*
G04 #@! TO.C,R10*
X49649142Y-160810380D02*
X49315809Y-160334190D01*
X49077714Y-160810380D02*
X49077714Y-159810380D01*
X49458666Y-159810380D01*
X49553904Y-159858000D01*
X49601523Y-159905619D01*
X49649142Y-160000857D01*
X49649142Y-160143714D01*
X49601523Y-160238952D01*
X49553904Y-160286571D01*
X49458666Y-160334190D01*
X49077714Y-160334190D01*
X50601523Y-160810380D02*
X50030095Y-160810380D01*
X50315809Y-160810380D02*
X50315809Y-159810380D01*
X50220571Y-159953238D01*
X50125333Y-160048476D01*
X50030095Y-160096095D01*
X51220571Y-159810380D02*
X51315809Y-159810380D01*
X51411047Y-159858000D01*
X51458666Y-159905619D01*
X51506285Y-160000857D01*
X51553904Y-160191333D01*
X51553904Y-160429428D01*
X51506285Y-160619904D01*
X51458666Y-160715142D01*
X51411047Y-160762761D01*
X51315809Y-160810380D01*
X51220571Y-160810380D01*
X51125333Y-160762761D01*
X51077714Y-160715142D01*
X51030095Y-160619904D01*
X50982476Y-160429428D01*
X50982476Y-160191333D01*
X51030095Y-160000857D01*
X51077714Y-159905619D01*
X51125333Y-159858000D01*
X51220571Y-159810380D01*
G04 #@! TO.C,R11*
X47617142Y-157254380D02*
X47283809Y-156778190D01*
X47045714Y-157254380D02*
X47045714Y-156254380D01*
X47426666Y-156254380D01*
X47521904Y-156302000D01*
X47569523Y-156349619D01*
X47617142Y-156444857D01*
X47617142Y-156587714D01*
X47569523Y-156682952D01*
X47521904Y-156730571D01*
X47426666Y-156778190D01*
X47045714Y-156778190D01*
X48569523Y-157254380D02*
X47998095Y-157254380D01*
X48283809Y-157254380D02*
X48283809Y-156254380D01*
X48188571Y-156397238D01*
X48093333Y-156492476D01*
X47998095Y-156540095D01*
X49521904Y-157254380D02*
X48950476Y-157254380D01*
X49236190Y-157254380D02*
X49236190Y-156254380D01*
X49140952Y-156397238D01*
X49045714Y-156492476D01*
X48950476Y-156540095D01*
G04 #@! TO.C,RV1*
X126074380Y-94575238D02*
X125598190Y-94908571D01*
X126074380Y-95146666D02*
X125074380Y-95146666D01*
X125074380Y-94765714D01*
X125122000Y-94670476D01*
X125169619Y-94622857D01*
X125264857Y-94575238D01*
X125407714Y-94575238D01*
X125502952Y-94622857D01*
X125550571Y-94670476D01*
X125598190Y-94765714D01*
X125598190Y-95146666D01*
X125074380Y-94289523D02*
X126074380Y-93956190D01*
X125074380Y-93622857D01*
X126074380Y-92765714D02*
X126074380Y-93337142D01*
X126074380Y-93051428D02*
X125074380Y-93051428D01*
X125217238Y-93146666D01*
X125312476Y-93241904D01*
X125360095Y-93337142D01*
G04 #@! TO.C,SW1*
X60642666Y-172616761D02*
X60785523Y-172664380D01*
X61023619Y-172664380D01*
X61118857Y-172616761D01*
X61166476Y-172569142D01*
X61214095Y-172473904D01*
X61214095Y-172378666D01*
X61166476Y-172283428D01*
X61118857Y-172235809D01*
X61023619Y-172188190D01*
X60833142Y-172140571D01*
X60737904Y-172092952D01*
X60690285Y-172045333D01*
X60642666Y-171950095D01*
X60642666Y-171854857D01*
X60690285Y-171759619D01*
X60737904Y-171712000D01*
X60833142Y-171664380D01*
X61071238Y-171664380D01*
X61214095Y-171712000D01*
X61547428Y-171664380D02*
X61785523Y-172664380D01*
X61976000Y-171950095D01*
X62166476Y-172664380D01*
X62404571Y-171664380D01*
X63309333Y-172664380D02*
X62737904Y-172664380D01*
X63023619Y-172664380D02*
X63023619Y-171664380D01*
X62928380Y-171807238D01*
X62833142Y-171902476D01*
X62737904Y-171950095D01*
G04 #@! TO.C,SW2*
X49974666Y-172616761D02*
X50117523Y-172664380D01*
X50355619Y-172664380D01*
X50450857Y-172616761D01*
X50498476Y-172569142D01*
X50546095Y-172473904D01*
X50546095Y-172378666D01*
X50498476Y-172283428D01*
X50450857Y-172235809D01*
X50355619Y-172188190D01*
X50165142Y-172140571D01*
X50069904Y-172092952D01*
X50022285Y-172045333D01*
X49974666Y-171950095D01*
X49974666Y-171854857D01*
X50022285Y-171759619D01*
X50069904Y-171712000D01*
X50165142Y-171664380D01*
X50403238Y-171664380D01*
X50546095Y-171712000D01*
X50879428Y-171664380D02*
X51117523Y-172664380D01*
X51308000Y-171950095D01*
X51498476Y-172664380D01*
X51736571Y-171664380D01*
X52069904Y-171759619D02*
X52117523Y-171712000D01*
X52212761Y-171664380D01*
X52450857Y-171664380D01*
X52546095Y-171712000D01*
X52593714Y-171759619D01*
X52641333Y-171854857D01*
X52641333Y-171950095D01*
X52593714Y-172092952D01*
X52022285Y-172664380D01*
X52641333Y-172664380D01*
G04 #@! TO.C,SW3*
X39306666Y-172616761D02*
X39449523Y-172664380D01*
X39687619Y-172664380D01*
X39782857Y-172616761D01*
X39830476Y-172569142D01*
X39878095Y-172473904D01*
X39878095Y-172378666D01*
X39830476Y-172283428D01*
X39782857Y-172235809D01*
X39687619Y-172188190D01*
X39497142Y-172140571D01*
X39401904Y-172092952D01*
X39354285Y-172045333D01*
X39306666Y-171950095D01*
X39306666Y-171854857D01*
X39354285Y-171759619D01*
X39401904Y-171712000D01*
X39497142Y-171664380D01*
X39735238Y-171664380D01*
X39878095Y-171712000D01*
X40211428Y-171664380D02*
X40449523Y-172664380D01*
X40640000Y-171950095D01*
X40830476Y-172664380D01*
X41068571Y-171664380D01*
X41354285Y-171664380D02*
X41973333Y-171664380D01*
X41640000Y-172045333D01*
X41782857Y-172045333D01*
X41878095Y-172092952D01*
X41925714Y-172140571D01*
X41973333Y-172235809D01*
X41973333Y-172473904D01*
X41925714Y-172569142D01*
X41878095Y-172616761D01*
X41782857Y-172664380D01*
X41497142Y-172664380D01*
X41401904Y-172616761D01*
X41354285Y-172569142D01*
G04 #@! TO.C,SW4*
X28638666Y-172616761D02*
X28781523Y-172664380D01*
X29019619Y-172664380D01*
X29114857Y-172616761D01*
X29162476Y-172569142D01*
X29210095Y-172473904D01*
X29210095Y-172378666D01*
X29162476Y-172283428D01*
X29114857Y-172235809D01*
X29019619Y-172188190D01*
X28829142Y-172140571D01*
X28733904Y-172092952D01*
X28686285Y-172045333D01*
X28638666Y-171950095D01*
X28638666Y-171854857D01*
X28686285Y-171759619D01*
X28733904Y-171712000D01*
X28829142Y-171664380D01*
X29067238Y-171664380D01*
X29210095Y-171712000D01*
X29543428Y-171664380D02*
X29781523Y-172664380D01*
X29972000Y-171950095D01*
X30162476Y-172664380D01*
X30400571Y-171664380D01*
X31210095Y-171997714D02*
X31210095Y-172664380D01*
X30972000Y-171616761D02*
X30733904Y-172331047D01*
X31352952Y-172331047D01*
G04 #@! TO.C,U1*
X88646095Y-35726380D02*
X88646095Y-36535904D01*
X88693714Y-36631142D01*
X88741333Y-36678761D01*
X88836571Y-36726380D01*
X89027047Y-36726380D01*
X89122285Y-36678761D01*
X89169904Y-36631142D01*
X89217523Y-36535904D01*
X89217523Y-35726380D01*
X90217523Y-36726380D02*
X89646095Y-36726380D01*
X89931809Y-36726380D02*
X89931809Y-35726380D01*
X89836571Y-35869238D01*
X89741333Y-35964476D01*
X89646095Y-36012095D01*
G04 #@! TO.C,J7*
X128952666Y-96758380D02*
X128952666Y-97472666D01*
X128905047Y-97615523D01*
X128809809Y-97710761D01*
X128666952Y-97758380D01*
X128571714Y-97758380D01*
X129333619Y-96758380D02*
X130000285Y-96758380D01*
X129571714Y-97758380D01*
G04 #@! TO.C,J8*
X33123888Y-91546579D02*
X33123888Y-92260865D01*
X33076269Y-92403722D01*
X32981031Y-92498960D01*
X32838174Y-92546579D01*
X32742936Y-92546579D01*
X33742936Y-91975151D02*
X33647698Y-91927532D01*
X33600079Y-91879913D01*
X33552460Y-91784675D01*
X33552460Y-91737056D01*
X33600079Y-91641818D01*
X33647698Y-91594199D01*
X33742936Y-91546579D01*
X33933412Y-91546579D01*
X34028650Y-91594199D01*
X34076269Y-91641818D01*
X34123888Y-91737056D01*
X34123888Y-91784675D01*
X34076269Y-91879913D01*
X34028650Y-91927532D01*
X33933412Y-91975151D01*
X33742936Y-91975151D01*
X33647698Y-92022770D01*
X33600079Y-92070389D01*
X33552460Y-92165627D01*
X33552460Y-92356103D01*
X33600079Y-92451341D01*
X33647698Y-92498960D01*
X33742936Y-92546579D01*
X33933412Y-92546579D01*
X34028650Y-92498960D01*
X34076269Y-92451341D01*
X34123888Y-92356103D01*
X34123888Y-92165627D01*
X34076269Y-92070389D01*
X34028650Y-92022770D01*
X33933412Y-91975151D01*
G04 #@! TD*
M02*
