G04 #@! TF.GenerationSoftware,KiCad,Pcbnew,(5.0.1)-4*
G04 #@! TF.CreationDate,2019-01-15T11:52:38-03:00*
G04 #@! TF.ProjectId,Principal,5072696E636970616C2E6B696361645F,rev?*
G04 #@! TF.SameCoordinates,Original*
G04 #@! TF.FileFunction,Copper,L2,Bot,Signal*
G04 #@! TF.FilePolarity,Positive*
%FSLAX46Y46*%
G04 Gerber Fmt 4.6, Leading zero omitted, Abs format (unit mm)*
G04 Created by KiCad (PCBNEW (5.0.1)-4) date 15/01/2019 11:52:39*
%MOMM*%
%LPD*%
G01*
G04 APERTURE LIST*
G04 #@! TA.AperFunction,ComponentPad*
%ADD10C,3.000000*%
G04 #@! TD*
G04 #@! TA.AperFunction,ComponentPad*
%ADD11R,3.000000X3.000000*%
G04 #@! TD*
G04 #@! TA.AperFunction,ComponentPad*
%ADD12O,1.600000X1.600000*%
G04 #@! TD*
G04 #@! TA.AperFunction,ComponentPad*
%ADD13C,1.600000*%
G04 #@! TD*
G04 #@! TA.AperFunction,ComponentPad*
%ADD14R,1.700000X1.700000*%
G04 #@! TD*
G04 #@! TA.AperFunction,ComponentPad*
%ADD15O,1.700000X1.700000*%
G04 #@! TD*
G04 #@! TA.AperFunction,ComponentPad*
%ADD16C,1.800000*%
G04 #@! TD*
G04 #@! TA.AperFunction,ComponentPad*
%ADD17R,1.800000X1.800000*%
G04 #@! TD*
G04 #@! TA.AperFunction,ComponentPad*
%ADD18C,1.440000*%
G04 #@! TD*
G04 #@! TA.AperFunction,Conductor*
%ADD19C,1.600000*%
G04 #@! TD*
G04 #@! TA.AperFunction,Conductor*
%ADD20C,1.000000*%
G04 #@! TD*
G04 APERTURE END LIST*
D10*
G04 #@! TO.P,J3,2*
G04 #@! TO.N,Net-(J1-Pad20)*
X129540000Y-33274000D03*
G04 #@! TO.P,J3,3*
G04 #@! TO.N,+5V*
X124460000Y-33274000D03*
D11*
G04 #@! TO.P,J3,1*
G04 #@! TO.N,GND*
X119380000Y-33274000D03*
G04 #@! TD*
D10*
G04 #@! TO.P,J7,3*
G04 #@! TO.N,GND*
X149860000Y-33274000D03*
G04 #@! TO.P,J7,1*
G04 #@! TO.N,+5V*
X144780000Y-33274000D03*
D11*
G04 #@! TO.P,J7,2*
G04 #@! TO.N,Net-(J2-Pad48)*
X139700000Y-33274000D03*
G04 #@! TD*
G04 #@! TO.P,J5,2*
G04 #@! TO.N,Net-(J2-Pad11)*
X160020000Y-33274000D03*
D10*
G04 #@! TO.P,J5,1*
G04 #@! TO.N,+5V*
X165100000Y-33274000D03*
G04 #@! TO.P,J5,3*
G04 #@! TO.N,GND*
X170180000Y-33274000D03*
G04 #@! TD*
D12*
G04 #@! TO.P,R4,2*
G04 #@! TO.N,GND*
X101825001Y-66600999D03*
D13*
G04 #@! TO.P,R4,1*
G04 #@! TO.N,Net-(J1-Pad31)*
X101825001Y-76760999D03*
G04 #@! TD*
G04 #@! TO.P,R5,1*
G04 #@! TO.N,Net-(J1-Pad29)*
X105075001Y-76760999D03*
D12*
G04 #@! TO.P,R5,2*
G04 #@! TO.N,GND*
X105075001Y-66600999D03*
G04 #@! TD*
D13*
G04 #@! TO.P,R2,1*
G04 #@! TO.N,Net-(J1-Pad33)*
X98575001Y-76760999D03*
D12*
G04 #@! TO.P,R2,2*
G04 #@! TO.N,GND*
X98575001Y-66600999D03*
G04 #@! TD*
G04 #@! TO.P,R6,2*
G04 #@! TO.N,GND*
X108325001Y-66600999D03*
D13*
G04 #@! TO.P,R6,1*
G04 #@! TO.N,Net-(J1-Pad27)*
X108325001Y-76760999D03*
G04 #@! TD*
D14*
G04 #@! TO.P,J1,1*
G04 #@! TO.N,Net-(J1-Pad1)*
X122428000Y-81280000D03*
D15*
G04 #@! TO.P,J1,2*
G04 #@! TO.N,Net-(J1-Pad2)*
X124968000Y-81280000D03*
G04 #@! TO.P,J1,3*
G04 #@! TO.N,Net-(J1-Pad3)*
X122428000Y-83820000D03*
G04 #@! TO.P,J1,4*
G04 #@! TO.N,Net-(J1-Pad4)*
X124968000Y-83820000D03*
G04 #@! TO.P,J1,5*
G04 #@! TO.N,Net-(J1-Pad5)*
X122428000Y-86360000D03*
G04 #@! TO.P,J1,6*
G04 #@! TO.N,Net-(J1-Pad6)*
X124968000Y-86360000D03*
G04 #@! TO.P,J1,7*
G04 #@! TO.N,Net-(J1-Pad7)*
X122428000Y-88900000D03*
G04 #@! TO.P,J1,8*
G04 #@! TO.N,Net-(J1-Pad8)*
X124968000Y-88900000D03*
G04 #@! TO.P,J1,9*
G04 #@! TO.N,Net-(J1-Pad9)*
X122428000Y-91440000D03*
G04 #@! TO.P,J1,10*
G04 #@! TO.N,Net-(J1-Pad10)*
X124968000Y-91440000D03*
G04 #@! TO.P,J1,11*
G04 #@! TO.N,Net-(J1-Pad11)*
X122428000Y-93980000D03*
G04 #@! TO.P,J1,12*
G04 #@! TO.N,Net-(J1-Pad12)*
X124968000Y-93980000D03*
G04 #@! TO.P,J1,13*
G04 #@! TO.N,Net-(J1-Pad13)*
X122428000Y-96520000D03*
G04 #@! TO.P,J1,14*
G04 #@! TO.N,Net-(J1-Pad14)*
X124968000Y-96520000D03*
G04 #@! TO.P,J1,15*
G04 #@! TO.N,Net-(J1-Pad15)*
X122428000Y-99060000D03*
G04 #@! TO.P,J1,16*
G04 #@! TO.N,Net-(J1-Pad16)*
X124968000Y-99060000D03*
G04 #@! TO.P,J1,17*
G04 #@! TO.N,Net-(J1-Pad17)*
X122428000Y-101600000D03*
G04 #@! TO.P,J1,18*
G04 #@! TO.N,Net-(J1-Pad18)*
X124968000Y-101600000D03*
G04 #@! TO.P,J1,19*
G04 #@! TO.N,Net-(J1-Pad19)*
X122428000Y-104140000D03*
G04 #@! TO.P,J1,20*
G04 #@! TO.N,Net-(J1-Pad20)*
X124968000Y-104140000D03*
G04 #@! TO.P,J1,21*
G04 #@! TO.N,Net-(J1-Pad21)*
X122428000Y-106680000D03*
G04 #@! TO.P,J1,22*
G04 #@! TO.N,Net-(J1-Pad22)*
X124968000Y-106680000D03*
G04 #@! TO.P,J1,23*
G04 #@! TO.N,Net-(J1-Pad23)*
X122428000Y-109220000D03*
G04 #@! TO.P,J1,24*
G04 #@! TO.N,Net-(J1-Pad24)*
X124968000Y-109220000D03*
G04 #@! TO.P,J1,25*
G04 #@! TO.N,Net-(J1-Pad25)*
X122428000Y-111760000D03*
G04 #@! TO.P,J1,26*
G04 #@! TO.N,Net-(J1-Pad26)*
X124968000Y-111760000D03*
G04 #@! TO.P,J1,27*
G04 #@! TO.N,Net-(J1-Pad27)*
X122428000Y-114300000D03*
G04 #@! TO.P,J1,28*
G04 #@! TO.N,Net-(J1-Pad28)*
X124968000Y-114300000D03*
G04 #@! TO.P,J1,29*
G04 #@! TO.N,Net-(J1-Pad29)*
X122428000Y-116840000D03*
G04 #@! TO.P,J1,30*
G04 #@! TO.N,Net-(J1-Pad30)*
X124968000Y-116840000D03*
G04 #@! TO.P,J1,31*
G04 #@! TO.N,Net-(J1-Pad31)*
X122428000Y-119380000D03*
G04 #@! TO.P,J1,32*
G04 #@! TO.N,Net-(J1-Pad32)*
X124968000Y-119380000D03*
G04 #@! TO.P,J1,33*
G04 #@! TO.N,Net-(J1-Pad33)*
X122428000Y-121920000D03*
G04 #@! TO.P,J1,34*
G04 #@! TO.N,Net-(J1-Pad34)*
X124968000Y-121920000D03*
G04 #@! TO.P,J1,35*
G04 #@! TO.N,Net-(J1-Pad35)*
X122428000Y-124460000D03*
G04 #@! TO.P,J1,36*
G04 #@! TO.N,Net-(J1-Pad36)*
X124968000Y-124460000D03*
G04 #@! TO.P,J1,37*
G04 #@! TO.N,Net-(J1-Pad37)*
X122428000Y-127000000D03*
G04 #@! TO.P,J1,38*
G04 #@! TO.N,Net-(J1-Pad38)*
X124968000Y-127000000D03*
G04 #@! TO.P,J1,39*
G04 #@! TO.N,Net-(J1-Pad39)*
X122428000Y-129540000D03*
G04 #@! TO.P,J1,40*
G04 #@! TO.N,Net-(J1-Pad40)*
X124968000Y-129540000D03*
G04 #@! TO.P,J1,41*
G04 #@! TO.N,Net-(J1-Pad41)*
X122428000Y-132080000D03*
G04 #@! TO.P,J1,42*
G04 #@! TO.N,Net-(J1-Pad42)*
X124968000Y-132080000D03*
G04 #@! TO.P,J1,43*
G04 #@! TO.N,Net-(J1-Pad43)*
X122428000Y-134620000D03*
G04 #@! TO.P,J1,44*
G04 #@! TO.N,Net-(J1-Pad44)*
X124968000Y-134620000D03*
G04 #@! TO.P,J1,45*
G04 #@! TO.N,Net-(J1-Pad45)*
X122428000Y-137160000D03*
G04 #@! TO.P,J1,46*
G04 #@! TO.N,Net-(J1-Pad46)*
X124968000Y-137160000D03*
G04 #@! TO.P,J1,47*
G04 #@! TO.N,Net-(J1-Pad47)*
X122428000Y-139700000D03*
G04 #@! TO.P,J1,48*
G04 #@! TO.N,Net-(J1-Pad48)*
X124968000Y-139700000D03*
G04 #@! TO.P,J1,49*
G04 #@! TO.N,Net-(J1-Pad49)*
X122428000Y-142240000D03*
G04 #@! TO.P,J1,50*
G04 #@! TO.N,Net-(J1-Pad50)*
X124968000Y-142240000D03*
G04 #@! TD*
G04 #@! TO.P,J4,8*
G04 #@! TO.N,Net-(J1-Pad11)*
X103124000Y-98552000D03*
G04 #@! TO.P,J4,7*
G04 #@! TO.N,Net-(J1-Pad19)*
X103124000Y-101092000D03*
G04 #@! TO.P,J4,6*
G04 #@! TO.N,Net-(J1-Pad21)*
X103124000Y-103632000D03*
G04 #@! TO.P,J4,5*
G04 #@! TO.N,Net-(J1-Pad25)*
X103124000Y-106172000D03*
G04 #@! TO.P,J4,4*
G04 #@! TO.N,Net-(J1-Pad27)*
X103124000Y-108712000D03*
G04 #@! TO.P,J4,3*
G04 #@! TO.N,Net-(J1-Pad29)*
X103124000Y-111252000D03*
G04 #@! TO.P,J4,2*
G04 #@! TO.N,Net-(J1-Pad31)*
X103124000Y-113792000D03*
D14*
G04 #@! TO.P,J4,1*
G04 #@! TO.N,Net-(J1-Pad33)*
X103124000Y-116332000D03*
G04 #@! TD*
D16*
G04 #@! TO.P,D1,2*
G04 #@! TO.N,+5V*
X106680000Y-54356000D03*
D17*
G04 #@! TO.P,D1,1*
G04 #@! TO.N,Net-(D1-Pad1)*
X104140000Y-54356000D03*
G04 #@! TD*
D15*
G04 #@! TO.P,J2,50*
G04 #@! TO.N,Net-(J2-Pad50)*
X175768000Y-142240000D03*
G04 #@! TO.P,J2,49*
G04 #@! TO.N,Net-(J2-Pad49)*
X173228000Y-142240000D03*
G04 #@! TO.P,J2,48*
G04 #@! TO.N,Net-(J2-Pad48)*
X175768000Y-139700000D03*
G04 #@! TO.P,J2,47*
G04 #@! TO.N,Net-(J2-Pad47)*
X173228000Y-139700000D03*
G04 #@! TO.P,J2,46*
G04 #@! TO.N,Net-(J2-Pad46)*
X175768000Y-137160000D03*
G04 #@! TO.P,J2,45*
G04 #@! TO.N,Net-(J2-Pad45)*
X173228000Y-137160000D03*
G04 #@! TO.P,J2,44*
G04 #@! TO.N,Net-(J2-Pad44)*
X175768000Y-134620000D03*
G04 #@! TO.P,J2,43*
G04 #@! TO.N,Net-(J2-Pad43)*
X173228000Y-134620000D03*
G04 #@! TO.P,J2,42*
G04 #@! TO.N,Net-(J2-Pad42)*
X175768000Y-132080000D03*
G04 #@! TO.P,J2,41*
G04 #@! TO.N,Net-(J2-Pad41)*
X173228000Y-132080000D03*
G04 #@! TO.P,J2,40*
G04 #@! TO.N,Net-(J2-Pad40)*
X175768000Y-129540000D03*
G04 #@! TO.P,J2,39*
G04 #@! TO.N,Net-(J2-Pad39)*
X173228000Y-129540000D03*
G04 #@! TO.P,J2,38*
G04 #@! TO.N,Net-(J2-Pad38)*
X175768000Y-127000000D03*
G04 #@! TO.P,J2,37*
G04 #@! TO.N,Net-(J2-Pad37)*
X173228000Y-127000000D03*
G04 #@! TO.P,J2,36*
G04 #@! TO.N,Net-(J2-Pad36)*
X175768000Y-124460000D03*
G04 #@! TO.P,J2,35*
G04 #@! TO.N,Net-(J2-Pad35)*
X173228000Y-124460000D03*
G04 #@! TO.P,J2,34*
G04 #@! TO.N,Net-(J2-Pad34)*
X175768000Y-121920000D03*
G04 #@! TO.P,J2,33*
G04 #@! TO.N,Net-(J2-Pad33)*
X173228000Y-121920000D03*
G04 #@! TO.P,J2,32*
G04 #@! TO.N,Net-(J2-Pad32)*
X175768000Y-119380000D03*
G04 #@! TO.P,J2,31*
G04 #@! TO.N,Net-(J2-Pad31)*
X173228000Y-119380000D03*
G04 #@! TO.P,J2,30*
G04 #@! TO.N,Net-(J2-Pad30)*
X175768000Y-116840000D03*
G04 #@! TO.P,J2,29*
G04 #@! TO.N,Net-(J2-Pad29)*
X173228000Y-116840000D03*
G04 #@! TO.P,J2,28*
G04 #@! TO.N,Net-(J2-Pad28)*
X175768000Y-114300000D03*
G04 #@! TO.P,J2,27*
G04 #@! TO.N,Net-(J2-Pad27)*
X173228000Y-114300000D03*
G04 #@! TO.P,J2,26*
G04 #@! TO.N,Net-(J2-Pad26)*
X175768000Y-111760000D03*
G04 #@! TO.P,J2,25*
G04 #@! TO.N,Net-(J2-Pad25)*
X173228000Y-111760000D03*
G04 #@! TO.P,J2,24*
G04 #@! TO.N,Net-(J2-Pad24)*
X175768000Y-109220000D03*
G04 #@! TO.P,J2,23*
G04 #@! TO.N,Net-(J2-Pad23)*
X173228000Y-109220000D03*
G04 #@! TO.P,J2,22*
G04 #@! TO.N,Net-(J2-Pad22)*
X175768000Y-106680000D03*
G04 #@! TO.P,J2,21*
G04 #@! TO.N,Net-(J2-Pad21)*
X173228000Y-106680000D03*
G04 #@! TO.P,J2,20*
G04 #@! TO.N,Net-(J2-Pad20)*
X175768000Y-104140000D03*
G04 #@! TO.P,J2,19*
G04 #@! TO.N,Net-(J2-Pad19)*
X173228000Y-104140000D03*
G04 #@! TO.P,J2,18*
G04 #@! TO.N,Net-(J2-Pad18)*
X175768000Y-101600000D03*
G04 #@! TO.P,J2,17*
G04 #@! TO.N,Net-(J2-Pad17)*
X173228000Y-101600000D03*
G04 #@! TO.P,J2,16*
G04 #@! TO.N,Net-(J2-Pad16)*
X175768000Y-99060000D03*
G04 #@! TO.P,J2,15*
G04 #@! TO.N,Net-(J2-Pad15)*
X173228000Y-99060000D03*
G04 #@! TO.P,J2,14*
G04 #@! TO.N,Net-(J2-Pad14)*
X175768000Y-96520000D03*
G04 #@! TO.P,J2,13*
G04 #@! TO.N,Net-(J2-Pad13)*
X173228000Y-96520000D03*
G04 #@! TO.P,J2,12*
G04 #@! TO.N,Net-(J2-Pad12)*
X175768000Y-93980000D03*
G04 #@! TO.P,J2,11*
G04 #@! TO.N,Net-(J2-Pad11)*
X173228000Y-93980000D03*
G04 #@! TO.P,J2,10*
G04 #@! TO.N,Net-(J2-Pad10)*
X175768000Y-91440000D03*
G04 #@! TO.P,J2,9*
G04 #@! TO.N,Net-(J2-Pad9)*
X173228000Y-91440000D03*
G04 #@! TO.P,J2,8*
G04 #@! TO.N,Net-(J2-Pad8)*
X175768000Y-88900000D03*
G04 #@! TO.P,J2,7*
G04 #@! TO.N,Net-(J2-Pad7)*
X173228000Y-88900000D03*
G04 #@! TO.P,J2,6*
G04 #@! TO.N,Net-(J2-Pad6)*
X175768000Y-86360000D03*
G04 #@! TO.P,J2,5*
G04 #@! TO.N,Net-(J2-Pad5)*
X173228000Y-86360000D03*
G04 #@! TO.P,J2,4*
G04 #@! TO.N,Net-(J2-Pad4)*
X175768000Y-83820000D03*
G04 #@! TO.P,J2,3*
G04 #@! TO.N,Net-(J2-Pad3)*
X173228000Y-83820000D03*
G04 #@! TO.P,J2,2*
G04 #@! TO.N,Net-(J2-Pad2)*
X175768000Y-81280000D03*
D14*
G04 #@! TO.P,J2,1*
G04 #@! TO.N,Net-(J2-Pad1)*
X173228000Y-81280000D03*
G04 #@! TD*
D15*
G04 #@! TO.P,J6,16*
G04 #@! TO.N,Net-(J6-Pad16)*
X195072000Y-132080000D03*
G04 #@! TO.P,J6,15*
G04 #@! TO.N,Net-(J6-Pad15)*
X195072000Y-129540000D03*
G04 #@! TO.P,J6,14*
G04 #@! TO.N,Net-(J2-Pad38)*
X195072000Y-127000000D03*
G04 #@! TO.P,J6,13*
G04 #@! TO.N,Net-(J2-Pad36)*
X195072000Y-124460000D03*
G04 #@! TO.P,J6,12*
G04 #@! TO.N,Net-(J2-Pad34)*
X195072000Y-121920000D03*
G04 #@! TO.P,J6,11*
G04 #@! TO.N,Net-(J2-Pad30)*
X195072000Y-119380000D03*
G04 #@! TO.P,J6,10*
G04 #@! TO.N,Net-(J6-Pad10)*
X195072000Y-116840000D03*
G04 #@! TO.P,J6,9*
G04 #@! TO.N,Net-(J6-Pad9)*
X195072000Y-114300000D03*
G04 #@! TO.P,J6,8*
G04 #@! TO.N,Net-(J6-Pad8)*
X195072000Y-111760000D03*
G04 #@! TO.P,J6,7*
G04 #@! TO.N,Net-(J6-Pad7)*
X195072000Y-109220000D03*
G04 #@! TO.P,J6,6*
G04 #@! TO.N,Net-(J2-Pad26)*
X195072000Y-106680000D03*
G04 #@! TO.P,J6,5*
G04 #@! TO.N,Net-(J6-Pad5)*
X195072000Y-104140000D03*
G04 #@! TO.P,J6,4*
G04 #@! TO.N,Net-(J2-Pad24)*
X195072000Y-101600000D03*
G04 #@! TO.P,J6,3*
G04 #@! TO.N,Net-(J6-Pad3)*
X195072000Y-99060000D03*
G04 #@! TO.P,J6,2*
G04 #@! TO.N,+5V*
X195072000Y-96520000D03*
D14*
G04 #@! TO.P,J6,1*
G04 #@! TO.N,GND*
X195072000Y-93980000D03*
G04 #@! TD*
D10*
G04 #@! TO.P,J8,2*
G04 #@! TO.N,+5V*
X106680000Y-33020000D03*
D11*
G04 #@! TO.P,J8,1*
G04 #@! TO.N,GND*
X101600000Y-33020000D03*
G04 #@! TD*
D12*
G04 #@! TO.P,R1,2*
G04 #@! TO.N,GND*
X98425000Y-61595000D03*
D13*
G04 #@! TO.P,R1,1*
G04 #@! TO.N,Net-(D1-Pad1)*
X108585000Y-61595000D03*
G04 #@! TD*
D12*
G04 #@! TO.P,R3,2*
G04 #@! TO.N,Net-(J1-Pad20)*
X129540000Y-40640000D03*
D13*
G04 #@! TO.P,R3,1*
G04 #@! TO.N,+5V*
X119380000Y-40640000D03*
G04 #@! TD*
G04 #@! TO.P,R7,1*
G04 #@! TO.N,+5V*
X170180000Y-40640000D03*
D12*
G04 #@! TO.P,R7,2*
G04 #@! TO.N,Net-(J2-Pad11)*
X160020000Y-40640000D03*
G04 #@! TD*
D18*
G04 #@! TO.P,RV1,3*
G04 #@! TO.N,GND*
X195072000Y-87884000D03*
G04 #@! TO.P,RV1,2*
G04 #@! TO.N,Net-(J6-Pad3)*
X195072000Y-85344000D03*
G04 #@! TO.P,RV1,1*
G04 #@! TO.N,+5V*
X195072000Y-82804000D03*
G04 #@! TD*
D19*
G04 #@! TO.N,+5V*
X197612000Y-82804000D02*
X195072000Y-82804000D01*
X199644000Y-84836000D02*
X197612000Y-82804000D01*
X199644000Y-94488000D02*
X199644000Y-84836000D01*
X195072000Y-96520000D02*
X197612000Y-96520000D01*
X197612000Y-96520000D02*
X199644000Y-94488000D01*
X182372000Y-65532000D02*
X182372000Y-88900000D01*
X189992000Y-96520000D02*
X195072000Y-96520000D01*
X182372000Y-88900000D02*
X189992000Y-96520000D01*
X124460000Y-30226000D02*
X124460000Y-33274000D01*
X127000000Y-27686000D02*
X124460000Y-30226000D01*
X141732000Y-27686000D02*
X127000000Y-27686000D01*
X144780000Y-33274000D02*
X144780000Y-30734000D01*
X144780000Y-30734000D02*
X141732000Y-27686000D01*
X163195000Y-28575000D02*
X165100000Y-30480000D01*
X144780000Y-33274000D02*
X144780000Y-36195000D01*
X147320000Y-38735000D02*
X152400000Y-38735000D01*
X144780000Y-36195000D02*
X147320000Y-38735000D01*
X152400000Y-38735000D02*
X154940000Y-36195000D01*
X156845000Y-28575000D02*
X163195000Y-28575000D01*
X154940000Y-36195000D02*
X154940000Y-30480000D01*
X165100000Y-30480000D02*
X165100000Y-33274000D01*
X154940000Y-30480000D02*
X156845000Y-28575000D01*
X124460000Y-33274000D02*
X124460000Y-35560000D01*
X124460000Y-35560000D02*
X119380000Y-40640000D01*
X119380000Y-40640000D02*
X110490000Y-40640000D01*
X110490000Y-40640000D02*
X106680000Y-44450000D01*
X106680000Y-44450000D02*
X106680000Y-54356000D01*
X106680000Y-36830000D02*
X106680000Y-33020000D01*
X110490000Y-40640000D02*
X106680000Y-36830000D01*
X170180000Y-53340000D02*
X172085000Y-55245000D01*
X170180000Y-40640000D02*
X170180000Y-53340000D01*
X172085000Y-55245000D02*
X182372000Y-65532000D01*
X170180000Y-40640000D02*
X165100000Y-35560000D01*
X165100000Y-35560000D02*
X165100000Y-33274000D01*
G04 #@! TO.N,Net-(D1-Pad1)*
X108585000Y-61595000D02*
X104140000Y-57150000D01*
X104140000Y-57150000D02*
X104140000Y-54356000D01*
G04 #@! TO.N,Net-(J1-Pad11)*
X103124000Y-98552000D02*
X103124000Y-95504000D01*
X104648000Y-93980000D02*
X122428000Y-93980000D01*
X103124000Y-95504000D02*
X104648000Y-93980000D01*
G04 #@! TO.N,Net-(J1-Pad19)*
X118872000Y-104140000D02*
X122428000Y-104140000D01*
X103124000Y-101092000D02*
X115824000Y-101092000D01*
X115824000Y-101092000D02*
X118872000Y-104140000D01*
G04 #@! TO.N,Net-(J1-Pad20)*
X129540000Y-44704000D02*
X129540000Y-40640000D01*
X129540000Y-102616000D02*
X129540000Y-44704000D01*
X124968000Y-104140000D02*
X128016000Y-104140000D01*
X128016000Y-104140000D02*
X129540000Y-102616000D01*
X129540000Y-33274000D02*
X129540000Y-40640000D01*
G04 #@! TO.N,Net-(J1-Pad21)*
X116840000Y-106680000D02*
X122428000Y-106680000D01*
X103124000Y-103632000D02*
X113792000Y-103632000D01*
X113792000Y-103632000D02*
X116840000Y-106680000D01*
G04 #@! TO.N,Net-(J1-Pad25)*
X116840000Y-111760000D02*
X122428000Y-111760000D01*
X103124000Y-106172000D02*
X111252000Y-106172000D01*
X111252000Y-106172000D02*
X116840000Y-111760000D01*
G04 #@! TO.N,Net-(J1-Pad27)*
X114808000Y-114300000D02*
X122428000Y-114300000D01*
X103124000Y-108712000D02*
X109220000Y-108712000D01*
X109220000Y-108712000D02*
X114808000Y-114300000D01*
X100584000Y-108712000D02*
X103124000Y-108712000D01*
X98165001Y-106293001D02*
X100584000Y-108712000D01*
X98165001Y-88524999D02*
X98165001Y-106293001D01*
X108325001Y-76760999D02*
X108325001Y-78364999D01*
X108325001Y-78364999D02*
X98165001Y-88524999D01*
G04 #@! TO.N,Net-(J1-Pad29)*
X112776000Y-116840000D02*
X122428000Y-116840000D01*
X103124000Y-111252000D02*
X107188000Y-111252000D01*
X107188000Y-111252000D02*
X112776000Y-116840000D01*
X99060000Y-111252000D02*
X103124000Y-111252000D01*
X94915001Y-107107001D02*
X99060000Y-111252000D01*
X94915001Y-87964999D02*
X94915001Y-107107001D01*
X105075001Y-76760999D02*
X105075001Y-77804999D01*
X105075001Y-77804999D02*
X94915001Y-87964999D01*
G04 #@! TO.N,Net-(J1-Pad31)*
X111252000Y-119380000D02*
X122428000Y-119380000D01*
X103124000Y-113792000D02*
X105664000Y-113792000D01*
X105664000Y-113792000D02*
X111252000Y-119380000D01*
X97536000Y-113792000D02*
X103124000Y-113792000D01*
X91665001Y-107921001D02*
X97536000Y-113792000D01*
X91665001Y-87404999D02*
X91665001Y-107921001D01*
X101825001Y-76760999D02*
X101825001Y-77244999D01*
X101825001Y-77244999D02*
X91665001Y-87404999D01*
G04 #@! TO.N,Net-(J1-Pad33)*
X121225919Y-121920000D02*
X122428000Y-121920000D01*
X106680000Y-121920000D02*
X121225919Y-121920000D01*
X103124000Y-116332000D02*
X103124000Y-118364000D01*
X103124000Y-118364000D02*
X106680000Y-121920000D01*
X98552000Y-76784000D02*
X98575001Y-76760999D01*
X96012000Y-116332000D02*
X103124000Y-116332000D01*
X88415001Y-108735001D02*
X96012000Y-116332000D01*
X88415001Y-86844999D02*
X88415001Y-108735001D01*
X98575001Y-76760999D02*
X98499001Y-76760999D01*
X98499001Y-76760999D02*
X88415001Y-86844999D01*
G04 #@! TO.N,Net-(J2-Pad48)*
X177165000Y-139700000D02*
X175768000Y-139700000D01*
X139700000Y-120396000D02*
X166624000Y-147320000D01*
X139700000Y-33274000D02*
X139700000Y-120396000D01*
X177165000Y-147320000D02*
X179070000Y-145415000D01*
X179070000Y-145415000D02*
X179070000Y-141605000D01*
X166624000Y-147320000D02*
X177165000Y-147320000D01*
X179070000Y-141605000D02*
X177165000Y-139700000D01*
G04 #@! TO.N,Net-(J2-Pad38)*
X195072000Y-127000000D02*
X175768000Y-127000000D01*
G04 #@! TO.N,Net-(J2-Pad36)*
X175768000Y-124460000D02*
X195072000Y-124460000D01*
G04 #@! TO.N,Net-(J2-Pad34)*
X193869919Y-121920000D02*
X175768000Y-121920000D01*
X195072000Y-121920000D02*
X193869919Y-121920000D01*
G04 #@! TO.N,Net-(J2-Pad30)*
X195072000Y-119380000D02*
X186436000Y-119380000D01*
X183896000Y-116840000D02*
X175768000Y-116840000D01*
X186436000Y-119380000D02*
X183896000Y-116840000D01*
G04 #@! TO.N,Net-(J2-Pad26)*
X175768000Y-111760000D02*
X183896000Y-111760000D01*
X183896000Y-111760000D02*
X188976000Y-106680000D01*
X195270002Y-106680000D02*
X195072000Y-106680000D01*
X188976000Y-106680000D02*
X195270002Y-106680000D01*
G04 #@! TO.N,Net-(J2-Pad24)*
X175768000Y-109220000D02*
X181356000Y-109220000D01*
X188976000Y-101600000D02*
X195072000Y-101600000D01*
X181356000Y-109220000D02*
X188976000Y-101600000D01*
G04 #@! TO.N,Net-(J2-Pad11)*
X160020000Y-44704000D02*
X160020000Y-40640000D01*
X160020000Y-59436000D02*
X160020000Y-44704000D01*
X165100000Y-64516000D02*
X160020000Y-59436000D01*
X165100000Y-91130002D02*
X165100000Y-64516000D01*
X173228000Y-93980000D02*
X167949998Y-93980000D01*
X167949998Y-93980000D02*
X165100000Y-91130002D01*
X160020000Y-40640000D02*
X160020000Y-33274000D01*
G04 #@! TO.N,GND*
X98575001Y-66600999D02*
X101825001Y-66600999D01*
X105075001Y-66600999D02*
X108325001Y-66600999D01*
X195072000Y-90424000D02*
X195072000Y-93980000D01*
X195072000Y-87884000D02*
X195072000Y-90424000D01*
X195072000Y-90424000D02*
X192532000Y-90424000D01*
X192532000Y-90424000D02*
X186436000Y-84328000D01*
X119380000Y-30174000D02*
X119380000Y-24130000D01*
X119380000Y-33274000D02*
X119380000Y-30174000D01*
X149860000Y-31152680D02*
X149860000Y-24130000D01*
X149860000Y-33274000D02*
X149860000Y-31152680D01*
X99299000Y-62394999D02*
X103505000Y-66600999D01*
X99224999Y-62394999D02*
X99299000Y-62394999D01*
X98425000Y-61595000D02*
X99224999Y-62394999D01*
X101825001Y-66600999D02*
X103505000Y-66600999D01*
X103505000Y-66600999D02*
X105075001Y-66600999D01*
X165100000Y-24130000D02*
X149860000Y-24130000D01*
X170180000Y-33274000D02*
X170180000Y-29210000D01*
X170180000Y-29210000D02*
X165100000Y-24130000D01*
X107390000Y-24130000D02*
X121285000Y-24130000D01*
X101600000Y-29920000D02*
X107390000Y-24130000D01*
X101600000Y-33020000D02*
X101600000Y-29920000D01*
X149860000Y-24130000D02*
X121285000Y-24130000D01*
X121285000Y-24130000D02*
X119380000Y-24130000D01*
X101600000Y-36120000D02*
X98425000Y-39295000D01*
X101600000Y-33020000D02*
X101600000Y-36120000D01*
X98425000Y-39295000D02*
X98425000Y-61595000D01*
X186436000Y-39751000D02*
X186436000Y-71755000D01*
X179959000Y-33274000D02*
X186436000Y-39751000D01*
X170180000Y-33274000D02*
X179959000Y-33274000D01*
X186436000Y-84328000D02*
X186436000Y-71755000D01*
G04 #@! TO.N,Net-(J6-Pad3)*
X199644000Y-99060000D02*
X195072000Y-99060000D01*
X203200000Y-95504000D02*
X199644000Y-99060000D01*
X203200000Y-82296000D02*
X203200000Y-95504000D01*
X192024000Y-85344000D02*
X189992000Y-83312000D01*
X189992000Y-83312000D02*
X189992000Y-80264000D01*
X195072000Y-85344000D02*
X192024000Y-85344000D01*
X189992000Y-80264000D02*
X192024000Y-78232000D01*
X192024000Y-78232000D02*
X199136000Y-78232000D01*
X199136000Y-78232000D02*
X203200000Y-82296000D01*
G04 #@! TD*
D20*
G04 #@! TO.N,GND*
G36*
X208110001Y-150960000D02*
X83990000Y-150960000D01*
X83990000Y-86844999D01*
X85560147Y-86844999D01*
X85615001Y-87120770D01*
X85615002Y-108459225D01*
X85560147Y-108735001D01*
X85777459Y-109827506D01*
X86240100Y-110519897D01*
X86240102Y-110519899D01*
X86396315Y-110753688D01*
X86630104Y-110909901D01*
X93837100Y-118116898D01*
X93993313Y-118350687D01*
X94227102Y-118506900D01*
X94227103Y-118506901D01*
X94919494Y-118969542D01*
X95736225Y-119132000D01*
X95736228Y-119132000D01*
X96011999Y-119186854D01*
X96287770Y-119132000D01*
X100421910Y-119132000D01*
X100486458Y-119456506D01*
X101105314Y-120382687D01*
X101339103Y-120538900D01*
X104505100Y-123704898D01*
X104661313Y-123938687D01*
X104895102Y-124094900D01*
X104895103Y-124094901D01*
X104977565Y-124150000D01*
X105587494Y-124557542D01*
X106404225Y-124720000D01*
X106404230Y-124720000D01*
X106679999Y-124774854D01*
X106955769Y-124720000D01*
X119573883Y-124720000D01*
X119743359Y-125572015D01*
X119848921Y-125730000D01*
X119743359Y-125887985D01*
X119522166Y-127000000D01*
X119743359Y-128112015D01*
X119848921Y-128270000D01*
X119743359Y-128427985D01*
X119522166Y-129540000D01*
X119743359Y-130652015D01*
X119848921Y-130810000D01*
X119743359Y-130967985D01*
X119522166Y-132080000D01*
X119743359Y-133192015D01*
X119848921Y-133350000D01*
X119743359Y-133507985D01*
X119522166Y-134620000D01*
X119743359Y-135732015D01*
X119848921Y-135890000D01*
X119743359Y-136047985D01*
X119522166Y-137160000D01*
X119743359Y-138272015D01*
X119848921Y-138430000D01*
X119743359Y-138587985D01*
X119522166Y-139700000D01*
X119743359Y-140812015D01*
X119848921Y-140970000D01*
X119743359Y-141127985D01*
X119522166Y-142240000D01*
X119743359Y-143352015D01*
X120373265Y-144294735D01*
X121315985Y-144924641D01*
X122147303Y-145090000D01*
X122708697Y-145090000D01*
X123540015Y-144924641D01*
X123698000Y-144819079D01*
X123855985Y-144924641D01*
X124687303Y-145090000D01*
X125248697Y-145090000D01*
X126080015Y-144924641D01*
X127022735Y-144294735D01*
X127652641Y-143352015D01*
X127873834Y-142240000D01*
X127652641Y-141127985D01*
X127547079Y-140970000D01*
X127652641Y-140812015D01*
X127873834Y-139700000D01*
X127652641Y-138587985D01*
X127547079Y-138430000D01*
X127652641Y-138272015D01*
X127873834Y-137160000D01*
X127652641Y-136047985D01*
X127547079Y-135890000D01*
X127652641Y-135732015D01*
X127873834Y-134620000D01*
X127652641Y-133507985D01*
X127547079Y-133350000D01*
X127652641Y-133192015D01*
X127873834Y-132080000D01*
X127652641Y-130967985D01*
X127547079Y-130810000D01*
X127652641Y-130652015D01*
X127873834Y-129540000D01*
X127652641Y-128427985D01*
X127547079Y-128270000D01*
X127652641Y-128112015D01*
X127873834Y-127000000D01*
X127652641Y-125887985D01*
X127547079Y-125730000D01*
X127652641Y-125572015D01*
X127873834Y-124460000D01*
X127652641Y-123347985D01*
X127547079Y-123190000D01*
X127652641Y-123032015D01*
X127873834Y-121920000D01*
X127652641Y-120807985D01*
X127547079Y-120650000D01*
X127652641Y-120492015D01*
X127873834Y-119380000D01*
X127652641Y-118267985D01*
X127547079Y-118110000D01*
X127652641Y-117952015D01*
X127873834Y-116840000D01*
X127652641Y-115727985D01*
X127547079Y-115570000D01*
X127652641Y-115412015D01*
X127873834Y-114300000D01*
X127652641Y-113187985D01*
X127547079Y-113030000D01*
X127652641Y-112872015D01*
X127873834Y-111760000D01*
X127652641Y-110647985D01*
X127547079Y-110490000D01*
X127652641Y-110332015D01*
X127873834Y-109220000D01*
X127652641Y-108107985D01*
X127547079Y-107950000D01*
X127652641Y-107792015D01*
X127819000Y-106955668D01*
X128016000Y-106994854D01*
X128291771Y-106940000D01*
X128291775Y-106940000D01*
X129108506Y-106777542D01*
X130034687Y-106158687D01*
X130190902Y-105924895D01*
X131324897Y-104790900D01*
X131558686Y-104634687D01*
X131715500Y-104400000D01*
X131954402Y-104042458D01*
X132177542Y-103708506D01*
X132340000Y-102891775D01*
X132340000Y-102891770D01*
X132394854Y-102616001D01*
X132340000Y-102340231D01*
X132340000Y-40915774D01*
X132394855Y-40640000D01*
X132340000Y-40364225D01*
X132340000Y-35423748D01*
X132507157Y-35256591D01*
X133040000Y-33970193D01*
X133040000Y-32577807D01*
X132507157Y-31291409D01*
X131701748Y-30486000D01*
X136655235Y-30486000D01*
X136316041Y-30993639D01*
X136160818Y-31774000D01*
X136160818Y-34774000D01*
X136316041Y-35554361D01*
X136758081Y-36215919D01*
X136900000Y-36310747D01*
X136900001Y-120120224D01*
X136845146Y-120396000D01*
X137062458Y-121488505D01*
X137525099Y-122180896D01*
X137525101Y-122180898D01*
X137681314Y-122414687D01*
X137915103Y-122570900D01*
X164449100Y-149104898D01*
X164605313Y-149338687D01*
X164839102Y-149494900D01*
X164839103Y-149494901D01*
X165531494Y-149957542D01*
X166348225Y-150120000D01*
X166348229Y-150120000D01*
X166624000Y-150174854D01*
X166899771Y-150120000D01*
X176889229Y-150120000D01*
X177165000Y-150174854D01*
X177440771Y-150120000D01*
X177440775Y-150120000D01*
X178257506Y-149957542D01*
X179183687Y-149338687D01*
X179339902Y-149104896D01*
X180854900Y-147589898D01*
X181088686Y-147433687D01*
X181244898Y-147199900D01*
X181244901Y-147199897D01*
X181707542Y-146507506D01*
X181707542Y-146507505D01*
X181870000Y-145690775D01*
X181870000Y-145690771D01*
X181924854Y-145415000D01*
X181870000Y-145139229D01*
X181870000Y-141880771D01*
X181924854Y-141605000D01*
X181870000Y-141329229D01*
X181870000Y-141329225D01*
X181707542Y-140512494D01*
X181244901Y-139820103D01*
X181244900Y-139820102D01*
X181088687Y-139586313D01*
X180854898Y-139430100D01*
X179339902Y-137915104D01*
X179183687Y-137681313D01*
X178642118Y-137319448D01*
X178673834Y-137160000D01*
X178452641Y-136047985D01*
X178347079Y-135890000D01*
X178452641Y-135732015D01*
X178673834Y-134620000D01*
X178452641Y-133507985D01*
X178347079Y-133350000D01*
X178452641Y-133192015D01*
X178673834Y-132080000D01*
X178452641Y-130967985D01*
X178347079Y-130810000D01*
X178452641Y-130652015D01*
X178622117Y-129800000D01*
X192217883Y-129800000D01*
X192387359Y-130652015D01*
X192492921Y-130810000D01*
X192387359Y-130967985D01*
X192166166Y-132080000D01*
X192387359Y-133192015D01*
X193017265Y-134134735D01*
X193959985Y-134764641D01*
X194791303Y-134930000D01*
X195352697Y-134930000D01*
X196184015Y-134764641D01*
X197126735Y-134134735D01*
X197756641Y-133192015D01*
X197977834Y-132080000D01*
X197756641Y-130967985D01*
X197651079Y-130810000D01*
X197756641Y-130652015D01*
X197977834Y-129540000D01*
X197756641Y-128427985D01*
X197651079Y-128270000D01*
X197756641Y-128112015D01*
X197977834Y-127000000D01*
X197756641Y-125887985D01*
X197651079Y-125730000D01*
X197756641Y-125572015D01*
X197977834Y-124460000D01*
X197756641Y-123347985D01*
X197651079Y-123190000D01*
X197756641Y-123032015D01*
X197977834Y-121920000D01*
X197756641Y-120807985D01*
X197651079Y-120650000D01*
X197756641Y-120492015D01*
X197977834Y-119380000D01*
X197756641Y-118267985D01*
X197651079Y-118110000D01*
X197756641Y-117952015D01*
X197977834Y-116840000D01*
X197756641Y-115727985D01*
X197651079Y-115570000D01*
X197756641Y-115412015D01*
X197977834Y-114300000D01*
X197756641Y-113187985D01*
X197651079Y-113030000D01*
X197756641Y-112872015D01*
X197977834Y-111760000D01*
X197756641Y-110647985D01*
X197651079Y-110490000D01*
X197756641Y-110332015D01*
X197977834Y-109220000D01*
X197756641Y-108107985D01*
X197720012Y-108053167D01*
X197907544Y-107772506D01*
X198124857Y-106680000D01*
X197907544Y-105587494D01*
X197720012Y-105306833D01*
X197756641Y-105252015D01*
X197977834Y-104140000D01*
X197756641Y-103027985D01*
X197651079Y-102870000D01*
X197756641Y-102712015D01*
X197926117Y-101860000D01*
X199368229Y-101860000D01*
X199644000Y-101914854D01*
X199919771Y-101860000D01*
X199919775Y-101860000D01*
X200736506Y-101697542D01*
X201662687Y-101078687D01*
X201818902Y-100844895D01*
X204984898Y-97678900D01*
X205218687Y-97522687D01*
X205837542Y-96596506D01*
X206000000Y-95779775D01*
X206000000Y-95779770D01*
X206054854Y-95504001D01*
X206000000Y-95228231D01*
X206000000Y-82571771D01*
X206054854Y-82296000D01*
X206000000Y-82020229D01*
X206000000Y-82020225D01*
X205837542Y-81203494D01*
X205484051Y-80674458D01*
X205374901Y-80511103D01*
X205374898Y-80511100D01*
X205218686Y-80277313D01*
X204984900Y-80121102D01*
X201310902Y-76447105D01*
X201154687Y-76213313D01*
X200228506Y-75594458D01*
X199411775Y-75432000D01*
X199411771Y-75432000D01*
X199136000Y-75377146D01*
X198860229Y-75432000D01*
X192299771Y-75432000D01*
X192024000Y-75377146D01*
X191748229Y-75432000D01*
X191748225Y-75432000D01*
X190931494Y-75594458D01*
X190239103Y-76057099D01*
X190239102Y-76057100D01*
X190005313Y-76213313D01*
X189849100Y-76447102D01*
X188207102Y-78089100D01*
X187973314Y-78245313D01*
X187817101Y-78479102D01*
X187817099Y-78479104D01*
X187354458Y-79171495D01*
X187297567Y-79457505D01*
X187192000Y-79988225D01*
X187192000Y-79988229D01*
X187137146Y-80264000D01*
X187192000Y-80539771D01*
X187192000Y-83036229D01*
X187137146Y-83312000D01*
X187192000Y-83587771D01*
X187192000Y-83587774D01*
X187315263Y-84207457D01*
X187354458Y-84404505D01*
X187707950Y-84933542D01*
X187973313Y-85330686D01*
X188207102Y-85486899D01*
X189849100Y-87128898D01*
X190005313Y-87362687D01*
X190239102Y-87518900D01*
X190239103Y-87518901D01*
X190906736Y-87964999D01*
X190931494Y-87981542D01*
X191748225Y-88144000D01*
X191748229Y-88144000D01*
X192024000Y-88198854D01*
X192299771Y-88144000D01*
X192830824Y-88144000D01*
X192827092Y-88244621D01*
X193135979Y-89076259D01*
X193229613Y-89216392D01*
X193727662Y-89221267D01*
X194804929Y-88144000D01*
X194819071Y-88144000D01*
X193734733Y-89228338D01*
X193739608Y-89726387D01*
X194546081Y-90096028D01*
X195432621Y-90128908D01*
X196264259Y-89820021D01*
X196404392Y-89726387D01*
X196409267Y-89228338D01*
X195324929Y-88144000D01*
X195339071Y-88144000D01*
X196416338Y-89221267D01*
X196844001Y-89217081D01*
X196844000Y-91916537D01*
X196777347Y-91849884D01*
X196222358Y-91620000D01*
X195454500Y-91620000D01*
X195077000Y-91997500D01*
X195077000Y-93670000D01*
X195067000Y-93670000D01*
X195067000Y-91997500D01*
X194689500Y-91620000D01*
X193921642Y-91620000D01*
X193366653Y-91849884D01*
X192941884Y-92274654D01*
X192712000Y-92829643D01*
X192712000Y-93597500D01*
X192834500Y-93720000D01*
X191151798Y-93720000D01*
X185172000Y-87740203D01*
X185172000Y-65807771D01*
X185226854Y-65532000D01*
X185172000Y-65256229D01*
X185172000Y-65256225D01*
X185009542Y-64439494D01*
X184952191Y-64353662D01*
X184546901Y-63747103D01*
X184546898Y-63747100D01*
X184390686Y-63513313D01*
X184156900Y-63357102D01*
X174259903Y-53460106D01*
X174259901Y-53460103D01*
X172980000Y-52180203D01*
X172980000Y-40915771D01*
X173034854Y-40640000D01*
X172980000Y-40364229D01*
X172980000Y-40083045D01*
X172872397Y-39823269D01*
X172817542Y-39547494D01*
X172764120Y-39467542D01*
X172661327Y-39313702D01*
X172553725Y-39053928D01*
X172354903Y-38855106D01*
X172354901Y-38855103D01*
X172354898Y-38855100D01*
X172198686Y-38621313D01*
X171964900Y-38465102D01*
X169770510Y-36270713D01*
X170665030Y-36304399D01*
X171787793Y-35888111D01*
X171979848Y-35759784D01*
X172079617Y-35180688D01*
X170180000Y-33281071D01*
X170165858Y-33295214D01*
X170158787Y-33288143D01*
X170172929Y-33274000D01*
X170187071Y-33274000D01*
X172086688Y-35173617D01*
X172665784Y-35073848D01*
X173165337Y-33985574D01*
X173210399Y-32788970D01*
X172794111Y-31666207D01*
X172665784Y-31474152D01*
X172086688Y-31374383D01*
X170187071Y-33274000D01*
X170172929Y-33274000D01*
X168273312Y-31374383D01*
X168112968Y-31402008D01*
X168098597Y-31367312D01*
X168280383Y-31367312D01*
X170180000Y-33266929D01*
X172079617Y-31367312D01*
X171979848Y-30788216D01*
X170891574Y-30288663D01*
X169694970Y-30243601D01*
X168572207Y-30659889D01*
X168380152Y-30788216D01*
X168280383Y-31367312D01*
X168098597Y-31367312D01*
X168067157Y-31291409D01*
X167900000Y-31124252D01*
X167900000Y-30755771D01*
X167954854Y-30480000D01*
X167900000Y-30204229D01*
X167900000Y-30204225D01*
X167737542Y-29387494D01*
X167567825Y-29133495D01*
X167274901Y-28695103D01*
X167274898Y-28695100D01*
X167118686Y-28461313D01*
X166884900Y-28305102D01*
X165369902Y-26790104D01*
X165213687Y-26556313D01*
X164287506Y-25937458D01*
X163470775Y-25775000D01*
X163470771Y-25775000D01*
X163195000Y-25720146D01*
X162919229Y-25775000D01*
X157120771Y-25775000D01*
X156845000Y-25720146D01*
X156569229Y-25775000D01*
X156569225Y-25775000D01*
X155752494Y-25937458D01*
X155060103Y-26400099D01*
X155060102Y-26400100D01*
X154826313Y-26556313D01*
X154670100Y-26790102D01*
X153155102Y-28305100D01*
X152921314Y-28461313D01*
X152765101Y-28695102D01*
X152765099Y-28695104D01*
X152302458Y-29387495D01*
X152085146Y-30480000D01*
X152140001Y-30755775D01*
X152140001Y-31438699D01*
X151766688Y-31374383D01*
X149867071Y-33274000D01*
X149881214Y-33288143D01*
X149874143Y-33295214D01*
X149860000Y-33281071D01*
X149845858Y-33295214D01*
X149838787Y-33288143D01*
X149852929Y-33274000D01*
X147953312Y-31374383D01*
X147792968Y-31402008D01*
X147778597Y-31367312D01*
X147960383Y-31367312D01*
X149860000Y-33266929D01*
X151759617Y-31367312D01*
X151659848Y-30788216D01*
X150571574Y-30288663D01*
X149374970Y-30243601D01*
X148252207Y-30659889D01*
X148060152Y-30788216D01*
X147960383Y-31367312D01*
X147778597Y-31367312D01*
X147747157Y-31291409D01*
X147580000Y-31124252D01*
X147580000Y-31009771D01*
X147634854Y-30734000D01*
X147580000Y-30458229D01*
X147580000Y-30458225D01*
X147417542Y-29641494D01*
X147247825Y-29387495D01*
X146954901Y-28949103D01*
X146954900Y-28949102D01*
X146798687Y-28715313D01*
X146564898Y-28559100D01*
X143906902Y-25901105D01*
X143750687Y-25667313D01*
X142824506Y-25048458D01*
X142007775Y-24886000D01*
X142007771Y-24886000D01*
X141732000Y-24831146D01*
X141456229Y-24886000D01*
X127275769Y-24886000D01*
X126999999Y-24831146D01*
X126724230Y-24886000D01*
X126724225Y-24886000D01*
X125907494Y-25048458D01*
X125396296Y-25390030D01*
X125215103Y-25511099D01*
X125215102Y-25511100D01*
X124981313Y-25667313D01*
X124825100Y-25901102D01*
X122675102Y-28051101D01*
X122441313Y-28207314D01*
X122285100Y-28441103D01*
X122285099Y-28441104D01*
X122059655Y-28778505D01*
X121822458Y-29133495D01*
X121660000Y-29950226D01*
X121660000Y-29950229D01*
X121605146Y-30226000D01*
X121651525Y-30459164D01*
X121180358Y-30264000D01*
X119762500Y-30264000D01*
X119385000Y-30641500D01*
X119385000Y-33269000D01*
X119405000Y-33269000D01*
X119405000Y-33279000D01*
X119385000Y-33279000D01*
X119385000Y-35906500D01*
X119762500Y-36284000D01*
X119776203Y-36284000D01*
X118220203Y-37840000D01*
X111649798Y-37840000D01*
X109480000Y-35670203D01*
X109480000Y-35169748D01*
X109647157Y-35002591D01*
X110180000Y-33716193D01*
X110180000Y-33656500D01*
X116370000Y-33656500D01*
X116370000Y-35074357D01*
X116599884Y-35629346D01*
X117024653Y-36054116D01*
X117579642Y-36284000D01*
X118997500Y-36284000D01*
X119375000Y-35906500D01*
X119375000Y-33279000D01*
X116747500Y-33279000D01*
X116370000Y-33656500D01*
X110180000Y-33656500D01*
X110180000Y-32323807D01*
X109827851Y-31473643D01*
X116370000Y-31473643D01*
X116370000Y-32891500D01*
X116747500Y-33269000D01*
X119375000Y-33269000D01*
X119375000Y-30641500D01*
X118997500Y-30264000D01*
X117579642Y-30264000D01*
X117024653Y-30493884D01*
X116599884Y-30918654D01*
X116370000Y-31473643D01*
X109827851Y-31473643D01*
X109647157Y-31037409D01*
X108662591Y-30052843D01*
X107376193Y-29520000D01*
X105983807Y-29520000D01*
X104697409Y-30052843D01*
X104232857Y-30517395D01*
X103955347Y-30239884D01*
X103400358Y-30010000D01*
X101982500Y-30010000D01*
X101605000Y-30387500D01*
X101605000Y-33015000D01*
X101625000Y-33015000D01*
X101625000Y-33025000D01*
X101605000Y-33025000D01*
X101605000Y-35652500D01*
X101982500Y-36030000D01*
X103400358Y-36030000D01*
X103880000Y-35831326D01*
X103880000Y-36554229D01*
X103825146Y-36830000D01*
X103880000Y-37105771D01*
X103880000Y-37105774D01*
X104042458Y-37922505D01*
X104661313Y-38848686D01*
X104895102Y-39004900D01*
X106530203Y-40640000D01*
X104895102Y-42275100D01*
X104661313Y-42431314D01*
X104042458Y-43357495D01*
X103880000Y-44174226D01*
X103880000Y-44174229D01*
X103825146Y-44450000D01*
X103880000Y-44725771D01*
X103880001Y-51416818D01*
X103240000Y-51416818D01*
X102459639Y-51572041D01*
X101798081Y-52014081D01*
X101356041Y-52675639D01*
X101200818Y-53456000D01*
X101200818Y-55256000D01*
X101340000Y-55955717D01*
X101340000Y-56874229D01*
X101285146Y-57150000D01*
X101340000Y-57425771D01*
X101340000Y-57425774D01*
X101430857Y-57882542D01*
X101502458Y-58242505D01*
X101871624Y-58795000D01*
X102121313Y-59168686D01*
X102355102Y-59324900D01*
X106800103Y-63769901D01*
X106800106Y-63769903D01*
X106998928Y-63968725D01*
X107258702Y-64076327D01*
X107492494Y-64232542D01*
X107768268Y-64287397D01*
X107883593Y-64335166D01*
X107790605Y-64353662D01*
X106971265Y-64729235D01*
X106700001Y-65021416D01*
X106428737Y-64729235D01*
X105609397Y-64353662D01*
X105441302Y-64320226D01*
X105080001Y-64668505D01*
X105080001Y-66595999D01*
X108320001Y-66595999D01*
X108320001Y-66575999D01*
X108330001Y-66575999D01*
X108330001Y-66595999D01*
X110257496Y-66595999D01*
X110605774Y-66234698D01*
X110291983Y-65389767D01*
X109678737Y-64729235D01*
X108949579Y-64395000D01*
X109141955Y-64395000D01*
X109401733Y-64287396D01*
X109677505Y-64232542D01*
X109911296Y-64076328D01*
X110171072Y-63968725D01*
X110369896Y-63769901D01*
X110603687Y-63613687D01*
X110759901Y-63379896D01*
X110958725Y-63181072D01*
X111066328Y-62921296D01*
X111222542Y-62687505D01*
X111277396Y-62411733D01*
X111385000Y-62151955D01*
X111385000Y-61870770D01*
X111439854Y-61594999D01*
X111385000Y-61319228D01*
X111385000Y-61038045D01*
X111277397Y-60778268D01*
X111222542Y-60502494D01*
X111066327Y-60268702D01*
X110958725Y-60008928D01*
X110759903Y-59810106D01*
X110759901Y-59810103D01*
X107927856Y-56978058D01*
X108322718Y-56814501D01*
X109138501Y-55998718D01*
X109580000Y-54932846D01*
X109580000Y-53779154D01*
X109480000Y-53537733D01*
X109480000Y-45609797D01*
X111649798Y-43440000D01*
X119104229Y-43440000D01*
X119380000Y-43494854D01*
X119655771Y-43440000D01*
X119936955Y-43440000D01*
X120196731Y-43332397D01*
X120472506Y-43277542D01*
X120706298Y-43121327D01*
X120966072Y-43013725D01*
X121164896Y-42814901D01*
X121398687Y-42658687D01*
X121554902Y-42424895D01*
X121753725Y-42226072D01*
X126244898Y-37734900D01*
X126478687Y-37578687D01*
X126634902Y-37344896D01*
X126740001Y-37187604D01*
X126740001Y-40364221D01*
X126685145Y-40640000D01*
X126740001Y-40915779D01*
X126740000Y-44979774D01*
X126740001Y-44979779D01*
X126740000Y-79036348D01*
X126080015Y-78595359D01*
X125248697Y-78430000D01*
X124687303Y-78430000D01*
X124068813Y-78553025D01*
X124058361Y-78546041D01*
X123278000Y-78390818D01*
X121578000Y-78390818D01*
X120797639Y-78546041D01*
X120136081Y-78988081D01*
X119694041Y-79649639D01*
X119538818Y-80430000D01*
X119538818Y-82130000D01*
X119694041Y-82910361D01*
X119701025Y-82920813D01*
X119522166Y-83820000D01*
X119743359Y-84932015D01*
X119848921Y-85090000D01*
X119743359Y-85247985D01*
X119522166Y-86360000D01*
X119743359Y-87472015D01*
X119848921Y-87630000D01*
X119743359Y-87787985D01*
X119522166Y-88900000D01*
X119743359Y-90012015D01*
X119848921Y-90170000D01*
X119743359Y-90327985D01*
X119573883Y-91180000D01*
X104923769Y-91180000D01*
X104647999Y-91125146D01*
X104372230Y-91180000D01*
X104372225Y-91180000D01*
X103555494Y-91342458D01*
X102629313Y-91961313D01*
X102473098Y-92195105D01*
X101339103Y-93329100D01*
X101105314Y-93485313D01*
X100965001Y-93695306D01*
X100965001Y-89684796D01*
X110109899Y-80539899D01*
X110343688Y-80383686D01*
X110588770Y-80016896D01*
X110962543Y-79457505D01*
X111026748Y-79134724D01*
X111125001Y-78640773D01*
X111125001Y-78640770D01*
X111179855Y-78364999D01*
X111125001Y-78089228D01*
X111125001Y-76204044D01*
X111017398Y-75944268D01*
X110962543Y-75668493D01*
X110806329Y-75434702D01*
X110698726Y-75174927D01*
X110499901Y-74976102D01*
X110343687Y-74742312D01*
X110109898Y-74586099D01*
X109911073Y-74387274D01*
X109651296Y-74279671D01*
X109417506Y-74123457D01*
X109141733Y-74068602D01*
X108881956Y-73960999D01*
X108600775Y-73960999D01*
X108325001Y-73906144D01*
X108049226Y-73960999D01*
X107768046Y-73960999D01*
X107508270Y-74068602D01*
X107232495Y-74123457D01*
X106998704Y-74279671D01*
X106738929Y-74387274D01*
X106700001Y-74426202D01*
X106661073Y-74387274D01*
X106401296Y-74279671D01*
X106167506Y-74123457D01*
X105891733Y-74068602D01*
X105631956Y-73960999D01*
X105350775Y-73960999D01*
X105075001Y-73906144D01*
X104799226Y-73960999D01*
X104518046Y-73960999D01*
X104258270Y-74068602D01*
X103982495Y-74123457D01*
X103748704Y-74279671D01*
X103488929Y-74387274D01*
X103450001Y-74426202D01*
X103411073Y-74387274D01*
X103151296Y-74279671D01*
X102917506Y-74123457D01*
X102641733Y-74068602D01*
X102381956Y-73960999D01*
X102100775Y-73960999D01*
X101825001Y-73906144D01*
X101549226Y-73960999D01*
X101268046Y-73960999D01*
X101008270Y-74068602D01*
X100732495Y-74123457D01*
X100498704Y-74279671D01*
X100238929Y-74387274D01*
X100200001Y-74426202D01*
X100161073Y-74387274D01*
X99901299Y-74279672D01*
X99667507Y-74123457D01*
X99391732Y-74068602D01*
X99131956Y-73960999D01*
X98850771Y-73960999D01*
X98575000Y-73906145D01*
X98537001Y-73913704D01*
X98499001Y-73906145D01*
X98223230Y-73960999D01*
X98018046Y-73960999D01*
X97828485Y-74039518D01*
X97406495Y-74123457D01*
X97048747Y-74362496D01*
X96988929Y-74387274D01*
X96943146Y-74433057D01*
X96714104Y-74586098D01*
X96714103Y-74586099D01*
X96480314Y-74742312D01*
X96324101Y-74976101D01*
X86630104Y-84670099D01*
X86396314Y-84826313D01*
X86240101Y-85060102D01*
X86240100Y-85060103D01*
X85985231Y-85441542D01*
X85777459Y-85752494D01*
X85615001Y-86569225D01*
X85615001Y-86569228D01*
X85560147Y-86844999D01*
X83990000Y-86844999D01*
X83990000Y-66967300D01*
X96294228Y-66967300D01*
X96608019Y-67812231D01*
X97221265Y-68472763D01*
X98040605Y-68848336D01*
X98208700Y-68881772D01*
X98570001Y-68533493D01*
X98570001Y-66605999D01*
X98580001Y-66605999D01*
X98580001Y-68533493D01*
X98941302Y-68881772D01*
X99109397Y-68848336D01*
X99928737Y-68472763D01*
X100200001Y-68180582D01*
X100471265Y-68472763D01*
X101290605Y-68848336D01*
X101458700Y-68881772D01*
X101820001Y-68533493D01*
X101820001Y-66605999D01*
X101830001Y-66605999D01*
X101830001Y-68533493D01*
X102191302Y-68881772D01*
X102359397Y-68848336D01*
X103178737Y-68472763D01*
X103450001Y-68180582D01*
X103721265Y-68472763D01*
X104540605Y-68848336D01*
X104708700Y-68881772D01*
X105070001Y-68533493D01*
X105070001Y-66605999D01*
X105080001Y-66605999D01*
X105080001Y-68533493D01*
X105441302Y-68881772D01*
X105609397Y-68848336D01*
X106428737Y-68472763D01*
X106700001Y-68180582D01*
X106971265Y-68472763D01*
X107790605Y-68848336D01*
X107958700Y-68881772D01*
X108320001Y-68533493D01*
X108320001Y-66605999D01*
X108330001Y-66605999D01*
X108330001Y-68533493D01*
X108691302Y-68881772D01*
X108859397Y-68848336D01*
X109678737Y-68472763D01*
X110291983Y-67812231D01*
X110605774Y-66967300D01*
X110257496Y-66605999D01*
X108330001Y-66605999D01*
X108320001Y-66605999D01*
X105080001Y-66605999D01*
X105070001Y-66605999D01*
X101830001Y-66605999D01*
X101820001Y-66605999D01*
X98580001Y-66605999D01*
X98570001Y-66605999D01*
X96642506Y-66605999D01*
X96294228Y-66967300D01*
X83990000Y-66967300D01*
X83990000Y-66234698D01*
X96294228Y-66234698D01*
X96642506Y-66595999D01*
X98570001Y-66595999D01*
X98570001Y-64668505D01*
X98580001Y-64668505D01*
X98580001Y-66595999D01*
X101820001Y-66595999D01*
X101820001Y-64668505D01*
X101830001Y-64668505D01*
X101830001Y-66595999D01*
X105070001Y-66595999D01*
X105070001Y-64668505D01*
X104708700Y-64320226D01*
X104540605Y-64353662D01*
X103721265Y-64729235D01*
X103450001Y-65021416D01*
X103178737Y-64729235D01*
X102359397Y-64353662D01*
X102191302Y-64320226D01*
X101830001Y-64668505D01*
X101820001Y-64668505D01*
X101458700Y-64320226D01*
X101290605Y-64353662D01*
X100471265Y-64729235D01*
X100200001Y-65021416D01*
X99928737Y-64729235D01*
X99109397Y-64353662D01*
X98941302Y-64320226D01*
X98580001Y-64668505D01*
X98570001Y-64668505D01*
X98208700Y-64320226D01*
X98040605Y-64353662D01*
X97221265Y-64729235D01*
X96608019Y-65389767D01*
X96294228Y-66234698D01*
X83990000Y-66234698D01*
X83990000Y-61961301D01*
X96144227Y-61961301D01*
X96177663Y-62129396D01*
X96553236Y-62948736D01*
X97213768Y-63561982D01*
X98058699Y-63875773D01*
X98420000Y-63527495D01*
X98420000Y-61600000D01*
X98430000Y-61600000D01*
X98430000Y-63527495D01*
X98791301Y-63875773D01*
X99636232Y-63561982D01*
X100296764Y-62948736D01*
X100672337Y-62129396D01*
X100705773Y-61961301D01*
X100357494Y-61600000D01*
X98430000Y-61600000D01*
X98420000Y-61600000D01*
X96492506Y-61600000D01*
X96144227Y-61961301D01*
X83990000Y-61961301D01*
X83990000Y-61228699D01*
X96144227Y-61228699D01*
X96492506Y-61590000D01*
X98420000Y-61590000D01*
X98420000Y-59662505D01*
X98430000Y-59662505D01*
X98430000Y-61590000D01*
X100357494Y-61590000D01*
X100705773Y-61228699D01*
X100672337Y-61060604D01*
X100296764Y-60241264D01*
X99636232Y-59628018D01*
X98791301Y-59314227D01*
X98430000Y-59662505D01*
X98420000Y-59662505D01*
X98058699Y-59314227D01*
X97213768Y-59628018D01*
X96553236Y-60241264D01*
X96177663Y-61060604D01*
X96144227Y-61228699D01*
X83990000Y-61228699D01*
X83990000Y-33402500D01*
X98590000Y-33402500D01*
X98590000Y-34820357D01*
X98819884Y-35375346D01*
X99244653Y-35800116D01*
X99799642Y-36030000D01*
X101217500Y-36030000D01*
X101595000Y-35652500D01*
X101595000Y-33025000D01*
X98967500Y-33025000D01*
X98590000Y-33402500D01*
X83990000Y-33402500D01*
X83990000Y-31219643D01*
X98590000Y-31219643D01*
X98590000Y-32637500D01*
X98967500Y-33015000D01*
X101595000Y-33015000D01*
X101595000Y-30387500D01*
X101217500Y-30010000D01*
X99799642Y-30010000D01*
X99244653Y-30239884D01*
X98819884Y-30664654D01*
X98590000Y-31219643D01*
X83990000Y-31219643D01*
X83990000Y-20490000D01*
X208110000Y-20490000D01*
X208110001Y-150960000D01*
X208110001Y-150960000D01*
G37*
X208110001Y-150960000D02*
X83990000Y-150960000D01*
X83990000Y-86844999D01*
X85560147Y-86844999D01*
X85615001Y-87120770D01*
X85615002Y-108459225D01*
X85560147Y-108735001D01*
X85777459Y-109827506D01*
X86240100Y-110519897D01*
X86240102Y-110519899D01*
X86396315Y-110753688D01*
X86630104Y-110909901D01*
X93837100Y-118116898D01*
X93993313Y-118350687D01*
X94227102Y-118506900D01*
X94227103Y-118506901D01*
X94919494Y-118969542D01*
X95736225Y-119132000D01*
X95736228Y-119132000D01*
X96011999Y-119186854D01*
X96287770Y-119132000D01*
X100421910Y-119132000D01*
X100486458Y-119456506D01*
X101105314Y-120382687D01*
X101339103Y-120538900D01*
X104505100Y-123704898D01*
X104661313Y-123938687D01*
X104895102Y-124094900D01*
X104895103Y-124094901D01*
X104977565Y-124150000D01*
X105587494Y-124557542D01*
X106404225Y-124720000D01*
X106404230Y-124720000D01*
X106679999Y-124774854D01*
X106955769Y-124720000D01*
X119573883Y-124720000D01*
X119743359Y-125572015D01*
X119848921Y-125730000D01*
X119743359Y-125887985D01*
X119522166Y-127000000D01*
X119743359Y-128112015D01*
X119848921Y-128270000D01*
X119743359Y-128427985D01*
X119522166Y-129540000D01*
X119743359Y-130652015D01*
X119848921Y-130810000D01*
X119743359Y-130967985D01*
X119522166Y-132080000D01*
X119743359Y-133192015D01*
X119848921Y-133350000D01*
X119743359Y-133507985D01*
X119522166Y-134620000D01*
X119743359Y-135732015D01*
X119848921Y-135890000D01*
X119743359Y-136047985D01*
X119522166Y-137160000D01*
X119743359Y-138272015D01*
X119848921Y-138430000D01*
X119743359Y-138587985D01*
X119522166Y-139700000D01*
X119743359Y-140812015D01*
X119848921Y-140970000D01*
X119743359Y-141127985D01*
X119522166Y-142240000D01*
X119743359Y-143352015D01*
X120373265Y-144294735D01*
X121315985Y-144924641D01*
X122147303Y-145090000D01*
X122708697Y-145090000D01*
X123540015Y-144924641D01*
X123698000Y-144819079D01*
X123855985Y-144924641D01*
X124687303Y-145090000D01*
X125248697Y-145090000D01*
X126080015Y-144924641D01*
X127022735Y-144294735D01*
X127652641Y-143352015D01*
X127873834Y-142240000D01*
X127652641Y-141127985D01*
X127547079Y-140970000D01*
X127652641Y-140812015D01*
X127873834Y-139700000D01*
X127652641Y-138587985D01*
X127547079Y-138430000D01*
X127652641Y-138272015D01*
X127873834Y-137160000D01*
X127652641Y-136047985D01*
X127547079Y-135890000D01*
X127652641Y-135732015D01*
X127873834Y-134620000D01*
X127652641Y-133507985D01*
X127547079Y-133350000D01*
X127652641Y-133192015D01*
X127873834Y-132080000D01*
X127652641Y-130967985D01*
X127547079Y-130810000D01*
X127652641Y-130652015D01*
X127873834Y-129540000D01*
X127652641Y-128427985D01*
X127547079Y-128270000D01*
X127652641Y-128112015D01*
X127873834Y-127000000D01*
X127652641Y-125887985D01*
X127547079Y-125730000D01*
X127652641Y-125572015D01*
X127873834Y-124460000D01*
X127652641Y-123347985D01*
X127547079Y-123190000D01*
X127652641Y-123032015D01*
X127873834Y-121920000D01*
X127652641Y-120807985D01*
X127547079Y-120650000D01*
X127652641Y-120492015D01*
X127873834Y-119380000D01*
X127652641Y-118267985D01*
X127547079Y-118110000D01*
X127652641Y-117952015D01*
X127873834Y-116840000D01*
X127652641Y-115727985D01*
X127547079Y-115570000D01*
X127652641Y-115412015D01*
X127873834Y-114300000D01*
X127652641Y-113187985D01*
X127547079Y-113030000D01*
X127652641Y-112872015D01*
X127873834Y-111760000D01*
X127652641Y-110647985D01*
X127547079Y-110490000D01*
X127652641Y-110332015D01*
X127873834Y-109220000D01*
X127652641Y-108107985D01*
X127547079Y-107950000D01*
X127652641Y-107792015D01*
X127819000Y-106955668D01*
X128016000Y-106994854D01*
X128291771Y-106940000D01*
X128291775Y-106940000D01*
X129108506Y-106777542D01*
X130034687Y-106158687D01*
X130190902Y-105924895D01*
X131324897Y-104790900D01*
X131558686Y-104634687D01*
X131715500Y-104400000D01*
X131954402Y-104042458D01*
X132177542Y-103708506D01*
X132340000Y-102891775D01*
X132340000Y-102891770D01*
X132394854Y-102616001D01*
X132340000Y-102340231D01*
X132340000Y-40915774D01*
X132394855Y-40640000D01*
X132340000Y-40364225D01*
X132340000Y-35423748D01*
X132507157Y-35256591D01*
X133040000Y-33970193D01*
X133040000Y-32577807D01*
X132507157Y-31291409D01*
X131701748Y-30486000D01*
X136655235Y-30486000D01*
X136316041Y-30993639D01*
X136160818Y-31774000D01*
X136160818Y-34774000D01*
X136316041Y-35554361D01*
X136758081Y-36215919D01*
X136900000Y-36310747D01*
X136900001Y-120120224D01*
X136845146Y-120396000D01*
X137062458Y-121488505D01*
X137525099Y-122180896D01*
X137525101Y-122180898D01*
X137681314Y-122414687D01*
X137915103Y-122570900D01*
X164449100Y-149104898D01*
X164605313Y-149338687D01*
X164839102Y-149494900D01*
X164839103Y-149494901D01*
X165531494Y-149957542D01*
X166348225Y-150120000D01*
X166348229Y-150120000D01*
X166624000Y-150174854D01*
X166899771Y-150120000D01*
X176889229Y-150120000D01*
X177165000Y-150174854D01*
X177440771Y-150120000D01*
X177440775Y-150120000D01*
X178257506Y-149957542D01*
X179183687Y-149338687D01*
X179339902Y-149104896D01*
X180854900Y-147589898D01*
X181088686Y-147433687D01*
X181244898Y-147199900D01*
X181244901Y-147199897D01*
X181707542Y-146507506D01*
X181707542Y-146507505D01*
X181870000Y-145690775D01*
X181870000Y-145690771D01*
X181924854Y-145415000D01*
X181870000Y-145139229D01*
X181870000Y-141880771D01*
X181924854Y-141605000D01*
X181870000Y-141329229D01*
X181870000Y-141329225D01*
X181707542Y-140512494D01*
X181244901Y-139820103D01*
X181244900Y-139820102D01*
X181088687Y-139586313D01*
X180854898Y-139430100D01*
X179339902Y-137915104D01*
X179183687Y-137681313D01*
X178642118Y-137319448D01*
X178673834Y-137160000D01*
X178452641Y-136047985D01*
X178347079Y-135890000D01*
X178452641Y-135732015D01*
X178673834Y-134620000D01*
X178452641Y-133507985D01*
X178347079Y-133350000D01*
X178452641Y-133192015D01*
X178673834Y-132080000D01*
X178452641Y-130967985D01*
X178347079Y-130810000D01*
X178452641Y-130652015D01*
X178622117Y-129800000D01*
X192217883Y-129800000D01*
X192387359Y-130652015D01*
X192492921Y-130810000D01*
X192387359Y-130967985D01*
X192166166Y-132080000D01*
X192387359Y-133192015D01*
X193017265Y-134134735D01*
X193959985Y-134764641D01*
X194791303Y-134930000D01*
X195352697Y-134930000D01*
X196184015Y-134764641D01*
X197126735Y-134134735D01*
X197756641Y-133192015D01*
X197977834Y-132080000D01*
X197756641Y-130967985D01*
X197651079Y-130810000D01*
X197756641Y-130652015D01*
X197977834Y-129540000D01*
X197756641Y-128427985D01*
X197651079Y-128270000D01*
X197756641Y-128112015D01*
X197977834Y-127000000D01*
X197756641Y-125887985D01*
X197651079Y-125730000D01*
X197756641Y-125572015D01*
X197977834Y-124460000D01*
X197756641Y-123347985D01*
X197651079Y-123190000D01*
X197756641Y-123032015D01*
X197977834Y-121920000D01*
X197756641Y-120807985D01*
X197651079Y-120650000D01*
X197756641Y-120492015D01*
X197977834Y-119380000D01*
X197756641Y-118267985D01*
X197651079Y-118110000D01*
X197756641Y-117952015D01*
X197977834Y-116840000D01*
X197756641Y-115727985D01*
X197651079Y-115570000D01*
X197756641Y-115412015D01*
X197977834Y-114300000D01*
X197756641Y-113187985D01*
X197651079Y-113030000D01*
X197756641Y-112872015D01*
X197977834Y-111760000D01*
X197756641Y-110647985D01*
X197651079Y-110490000D01*
X197756641Y-110332015D01*
X197977834Y-109220000D01*
X197756641Y-108107985D01*
X197720012Y-108053167D01*
X197907544Y-107772506D01*
X198124857Y-106680000D01*
X197907544Y-105587494D01*
X197720012Y-105306833D01*
X197756641Y-105252015D01*
X197977834Y-104140000D01*
X197756641Y-103027985D01*
X197651079Y-102870000D01*
X197756641Y-102712015D01*
X197926117Y-101860000D01*
X199368229Y-101860000D01*
X199644000Y-101914854D01*
X199919771Y-101860000D01*
X199919775Y-101860000D01*
X200736506Y-101697542D01*
X201662687Y-101078687D01*
X201818902Y-100844895D01*
X204984898Y-97678900D01*
X205218687Y-97522687D01*
X205837542Y-96596506D01*
X206000000Y-95779775D01*
X206000000Y-95779770D01*
X206054854Y-95504001D01*
X206000000Y-95228231D01*
X206000000Y-82571771D01*
X206054854Y-82296000D01*
X206000000Y-82020229D01*
X206000000Y-82020225D01*
X205837542Y-81203494D01*
X205484051Y-80674458D01*
X205374901Y-80511103D01*
X205374898Y-80511100D01*
X205218686Y-80277313D01*
X204984900Y-80121102D01*
X201310902Y-76447105D01*
X201154687Y-76213313D01*
X200228506Y-75594458D01*
X199411775Y-75432000D01*
X199411771Y-75432000D01*
X199136000Y-75377146D01*
X198860229Y-75432000D01*
X192299771Y-75432000D01*
X192024000Y-75377146D01*
X191748229Y-75432000D01*
X191748225Y-75432000D01*
X190931494Y-75594458D01*
X190239103Y-76057099D01*
X190239102Y-76057100D01*
X190005313Y-76213313D01*
X189849100Y-76447102D01*
X188207102Y-78089100D01*
X187973314Y-78245313D01*
X187817101Y-78479102D01*
X187817099Y-78479104D01*
X187354458Y-79171495D01*
X187297567Y-79457505D01*
X187192000Y-79988225D01*
X187192000Y-79988229D01*
X187137146Y-80264000D01*
X187192000Y-80539771D01*
X187192000Y-83036229D01*
X187137146Y-83312000D01*
X187192000Y-83587771D01*
X187192000Y-83587774D01*
X187315263Y-84207457D01*
X187354458Y-84404505D01*
X187707950Y-84933542D01*
X187973313Y-85330686D01*
X188207102Y-85486899D01*
X189849100Y-87128898D01*
X190005313Y-87362687D01*
X190239102Y-87518900D01*
X190239103Y-87518901D01*
X190906736Y-87964999D01*
X190931494Y-87981542D01*
X191748225Y-88144000D01*
X191748229Y-88144000D01*
X192024000Y-88198854D01*
X192299771Y-88144000D01*
X192830824Y-88144000D01*
X192827092Y-88244621D01*
X193135979Y-89076259D01*
X193229613Y-89216392D01*
X193727662Y-89221267D01*
X194804929Y-88144000D01*
X194819071Y-88144000D01*
X193734733Y-89228338D01*
X193739608Y-89726387D01*
X194546081Y-90096028D01*
X195432621Y-90128908D01*
X196264259Y-89820021D01*
X196404392Y-89726387D01*
X196409267Y-89228338D01*
X195324929Y-88144000D01*
X195339071Y-88144000D01*
X196416338Y-89221267D01*
X196844001Y-89217081D01*
X196844000Y-91916537D01*
X196777347Y-91849884D01*
X196222358Y-91620000D01*
X195454500Y-91620000D01*
X195077000Y-91997500D01*
X195077000Y-93670000D01*
X195067000Y-93670000D01*
X195067000Y-91997500D01*
X194689500Y-91620000D01*
X193921642Y-91620000D01*
X193366653Y-91849884D01*
X192941884Y-92274654D01*
X192712000Y-92829643D01*
X192712000Y-93597500D01*
X192834500Y-93720000D01*
X191151798Y-93720000D01*
X185172000Y-87740203D01*
X185172000Y-65807771D01*
X185226854Y-65532000D01*
X185172000Y-65256229D01*
X185172000Y-65256225D01*
X185009542Y-64439494D01*
X184952191Y-64353662D01*
X184546901Y-63747103D01*
X184546898Y-63747100D01*
X184390686Y-63513313D01*
X184156900Y-63357102D01*
X174259903Y-53460106D01*
X174259901Y-53460103D01*
X172980000Y-52180203D01*
X172980000Y-40915771D01*
X173034854Y-40640000D01*
X172980000Y-40364229D01*
X172980000Y-40083045D01*
X172872397Y-39823269D01*
X172817542Y-39547494D01*
X172764120Y-39467542D01*
X172661327Y-39313702D01*
X172553725Y-39053928D01*
X172354903Y-38855106D01*
X172354901Y-38855103D01*
X172354898Y-38855100D01*
X172198686Y-38621313D01*
X171964900Y-38465102D01*
X169770510Y-36270713D01*
X170665030Y-36304399D01*
X171787793Y-35888111D01*
X171979848Y-35759784D01*
X172079617Y-35180688D01*
X170180000Y-33281071D01*
X170165858Y-33295214D01*
X170158787Y-33288143D01*
X170172929Y-33274000D01*
X170187071Y-33274000D01*
X172086688Y-35173617D01*
X172665784Y-35073848D01*
X173165337Y-33985574D01*
X173210399Y-32788970D01*
X172794111Y-31666207D01*
X172665784Y-31474152D01*
X172086688Y-31374383D01*
X170187071Y-33274000D01*
X170172929Y-33274000D01*
X168273312Y-31374383D01*
X168112968Y-31402008D01*
X168098597Y-31367312D01*
X168280383Y-31367312D01*
X170180000Y-33266929D01*
X172079617Y-31367312D01*
X171979848Y-30788216D01*
X170891574Y-30288663D01*
X169694970Y-30243601D01*
X168572207Y-30659889D01*
X168380152Y-30788216D01*
X168280383Y-31367312D01*
X168098597Y-31367312D01*
X168067157Y-31291409D01*
X167900000Y-31124252D01*
X167900000Y-30755771D01*
X167954854Y-30480000D01*
X167900000Y-30204229D01*
X167900000Y-30204225D01*
X167737542Y-29387494D01*
X167567825Y-29133495D01*
X167274901Y-28695103D01*
X167274898Y-28695100D01*
X167118686Y-28461313D01*
X166884900Y-28305102D01*
X165369902Y-26790104D01*
X165213687Y-26556313D01*
X164287506Y-25937458D01*
X163470775Y-25775000D01*
X163470771Y-25775000D01*
X163195000Y-25720146D01*
X162919229Y-25775000D01*
X157120771Y-25775000D01*
X156845000Y-25720146D01*
X156569229Y-25775000D01*
X156569225Y-25775000D01*
X155752494Y-25937458D01*
X155060103Y-26400099D01*
X155060102Y-26400100D01*
X154826313Y-26556313D01*
X154670100Y-26790102D01*
X153155102Y-28305100D01*
X152921314Y-28461313D01*
X152765101Y-28695102D01*
X152765099Y-28695104D01*
X152302458Y-29387495D01*
X152085146Y-30480000D01*
X152140001Y-30755775D01*
X152140001Y-31438699D01*
X151766688Y-31374383D01*
X149867071Y-33274000D01*
X149881214Y-33288143D01*
X149874143Y-33295214D01*
X149860000Y-33281071D01*
X149845858Y-33295214D01*
X149838787Y-33288143D01*
X149852929Y-33274000D01*
X147953312Y-31374383D01*
X147792968Y-31402008D01*
X147778597Y-31367312D01*
X147960383Y-31367312D01*
X149860000Y-33266929D01*
X151759617Y-31367312D01*
X151659848Y-30788216D01*
X150571574Y-30288663D01*
X149374970Y-30243601D01*
X148252207Y-30659889D01*
X148060152Y-30788216D01*
X147960383Y-31367312D01*
X147778597Y-31367312D01*
X147747157Y-31291409D01*
X147580000Y-31124252D01*
X147580000Y-31009771D01*
X147634854Y-30734000D01*
X147580000Y-30458229D01*
X147580000Y-30458225D01*
X147417542Y-29641494D01*
X147247825Y-29387495D01*
X146954901Y-28949103D01*
X146954900Y-28949102D01*
X146798687Y-28715313D01*
X146564898Y-28559100D01*
X143906902Y-25901105D01*
X143750687Y-25667313D01*
X142824506Y-25048458D01*
X142007775Y-24886000D01*
X142007771Y-24886000D01*
X141732000Y-24831146D01*
X141456229Y-24886000D01*
X127275769Y-24886000D01*
X126999999Y-24831146D01*
X126724230Y-24886000D01*
X126724225Y-24886000D01*
X125907494Y-25048458D01*
X125396296Y-25390030D01*
X125215103Y-25511099D01*
X125215102Y-25511100D01*
X124981313Y-25667313D01*
X124825100Y-25901102D01*
X122675102Y-28051101D01*
X122441313Y-28207314D01*
X122285100Y-28441103D01*
X122285099Y-28441104D01*
X122059655Y-28778505D01*
X121822458Y-29133495D01*
X121660000Y-29950226D01*
X121660000Y-29950229D01*
X121605146Y-30226000D01*
X121651525Y-30459164D01*
X121180358Y-30264000D01*
X119762500Y-30264000D01*
X119385000Y-30641500D01*
X119385000Y-33269000D01*
X119405000Y-33269000D01*
X119405000Y-33279000D01*
X119385000Y-33279000D01*
X119385000Y-35906500D01*
X119762500Y-36284000D01*
X119776203Y-36284000D01*
X118220203Y-37840000D01*
X111649798Y-37840000D01*
X109480000Y-35670203D01*
X109480000Y-35169748D01*
X109647157Y-35002591D01*
X110180000Y-33716193D01*
X110180000Y-33656500D01*
X116370000Y-33656500D01*
X116370000Y-35074357D01*
X116599884Y-35629346D01*
X117024653Y-36054116D01*
X117579642Y-36284000D01*
X118997500Y-36284000D01*
X119375000Y-35906500D01*
X119375000Y-33279000D01*
X116747500Y-33279000D01*
X116370000Y-33656500D01*
X110180000Y-33656500D01*
X110180000Y-32323807D01*
X109827851Y-31473643D01*
X116370000Y-31473643D01*
X116370000Y-32891500D01*
X116747500Y-33269000D01*
X119375000Y-33269000D01*
X119375000Y-30641500D01*
X118997500Y-30264000D01*
X117579642Y-30264000D01*
X117024653Y-30493884D01*
X116599884Y-30918654D01*
X116370000Y-31473643D01*
X109827851Y-31473643D01*
X109647157Y-31037409D01*
X108662591Y-30052843D01*
X107376193Y-29520000D01*
X105983807Y-29520000D01*
X104697409Y-30052843D01*
X104232857Y-30517395D01*
X103955347Y-30239884D01*
X103400358Y-30010000D01*
X101982500Y-30010000D01*
X101605000Y-30387500D01*
X101605000Y-33015000D01*
X101625000Y-33015000D01*
X101625000Y-33025000D01*
X101605000Y-33025000D01*
X101605000Y-35652500D01*
X101982500Y-36030000D01*
X103400358Y-36030000D01*
X103880000Y-35831326D01*
X103880000Y-36554229D01*
X103825146Y-36830000D01*
X103880000Y-37105771D01*
X103880000Y-37105774D01*
X104042458Y-37922505D01*
X104661313Y-38848686D01*
X104895102Y-39004900D01*
X106530203Y-40640000D01*
X104895102Y-42275100D01*
X104661313Y-42431314D01*
X104042458Y-43357495D01*
X103880000Y-44174226D01*
X103880000Y-44174229D01*
X103825146Y-44450000D01*
X103880000Y-44725771D01*
X103880001Y-51416818D01*
X103240000Y-51416818D01*
X102459639Y-51572041D01*
X101798081Y-52014081D01*
X101356041Y-52675639D01*
X101200818Y-53456000D01*
X101200818Y-55256000D01*
X101340000Y-55955717D01*
X101340000Y-56874229D01*
X101285146Y-57150000D01*
X101340000Y-57425771D01*
X101340000Y-57425774D01*
X101430857Y-57882542D01*
X101502458Y-58242505D01*
X101871624Y-58795000D01*
X102121313Y-59168686D01*
X102355102Y-59324900D01*
X106800103Y-63769901D01*
X106800106Y-63769903D01*
X106998928Y-63968725D01*
X107258702Y-64076327D01*
X107492494Y-64232542D01*
X107768268Y-64287397D01*
X107883593Y-64335166D01*
X107790605Y-64353662D01*
X106971265Y-64729235D01*
X106700001Y-65021416D01*
X106428737Y-64729235D01*
X105609397Y-64353662D01*
X105441302Y-64320226D01*
X105080001Y-64668505D01*
X105080001Y-66595999D01*
X108320001Y-66595999D01*
X108320001Y-66575999D01*
X108330001Y-66575999D01*
X108330001Y-66595999D01*
X110257496Y-66595999D01*
X110605774Y-66234698D01*
X110291983Y-65389767D01*
X109678737Y-64729235D01*
X108949579Y-64395000D01*
X109141955Y-64395000D01*
X109401733Y-64287396D01*
X109677505Y-64232542D01*
X109911296Y-64076328D01*
X110171072Y-63968725D01*
X110369896Y-63769901D01*
X110603687Y-63613687D01*
X110759901Y-63379896D01*
X110958725Y-63181072D01*
X111066328Y-62921296D01*
X111222542Y-62687505D01*
X111277396Y-62411733D01*
X111385000Y-62151955D01*
X111385000Y-61870770D01*
X111439854Y-61594999D01*
X111385000Y-61319228D01*
X111385000Y-61038045D01*
X111277397Y-60778268D01*
X111222542Y-60502494D01*
X111066327Y-60268702D01*
X110958725Y-60008928D01*
X110759903Y-59810106D01*
X110759901Y-59810103D01*
X107927856Y-56978058D01*
X108322718Y-56814501D01*
X109138501Y-55998718D01*
X109580000Y-54932846D01*
X109580000Y-53779154D01*
X109480000Y-53537733D01*
X109480000Y-45609797D01*
X111649798Y-43440000D01*
X119104229Y-43440000D01*
X119380000Y-43494854D01*
X119655771Y-43440000D01*
X119936955Y-43440000D01*
X120196731Y-43332397D01*
X120472506Y-43277542D01*
X120706298Y-43121327D01*
X120966072Y-43013725D01*
X121164896Y-42814901D01*
X121398687Y-42658687D01*
X121554902Y-42424895D01*
X121753725Y-42226072D01*
X126244898Y-37734900D01*
X126478687Y-37578687D01*
X126634902Y-37344896D01*
X126740001Y-37187604D01*
X126740001Y-40364221D01*
X126685145Y-40640000D01*
X126740001Y-40915779D01*
X126740000Y-44979774D01*
X126740001Y-44979779D01*
X126740000Y-79036348D01*
X126080015Y-78595359D01*
X125248697Y-78430000D01*
X124687303Y-78430000D01*
X124068813Y-78553025D01*
X124058361Y-78546041D01*
X123278000Y-78390818D01*
X121578000Y-78390818D01*
X120797639Y-78546041D01*
X120136081Y-78988081D01*
X119694041Y-79649639D01*
X119538818Y-80430000D01*
X119538818Y-82130000D01*
X119694041Y-82910361D01*
X119701025Y-82920813D01*
X119522166Y-83820000D01*
X119743359Y-84932015D01*
X119848921Y-85090000D01*
X119743359Y-85247985D01*
X119522166Y-86360000D01*
X119743359Y-87472015D01*
X119848921Y-87630000D01*
X119743359Y-87787985D01*
X119522166Y-88900000D01*
X119743359Y-90012015D01*
X119848921Y-90170000D01*
X119743359Y-90327985D01*
X119573883Y-91180000D01*
X104923769Y-91180000D01*
X104647999Y-91125146D01*
X104372230Y-91180000D01*
X104372225Y-91180000D01*
X103555494Y-91342458D01*
X102629313Y-91961313D01*
X102473098Y-92195105D01*
X101339103Y-93329100D01*
X101105314Y-93485313D01*
X100965001Y-93695306D01*
X100965001Y-89684796D01*
X110109899Y-80539899D01*
X110343688Y-80383686D01*
X110588770Y-80016896D01*
X110962543Y-79457505D01*
X111026748Y-79134724D01*
X111125001Y-78640773D01*
X111125001Y-78640770D01*
X111179855Y-78364999D01*
X111125001Y-78089228D01*
X111125001Y-76204044D01*
X111017398Y-75944268D01*
X110962543Y-75668493D01*
X110806329Y-75434702D01*
X110698726Y-75174927D01*
X110499901Y-74976102D01*
X110343687Y-74742312D01*
X110109898Y-74586099D01*
X109911073Y-74387274D01*
X109651296Y-74279671D01*
X109417506Y-74123457D01*
X109141733Y-74068602D01*
X108881956Y-73960999D01*
X108600775Y-73960999D01*
X108325001Y-73906144D01*
X108049226Y-73960999D01*
X107768046Y-73960999D01*
X107508270Y-74068602D01*
X107232495Y-74123457D01*
X106998704Y-74279671D01*
X106738929Y-74387274D01*
X106700001Y-74426202D01*
X106661073Y-74387274D01*
X106401296Y-74279671D01*
X106167506Y-74123457D01*
X105891733Y-74068602D01*
X105631956Y-73960999D01*
X105350775Y-73960999D01*
X105075001Y-73906144D01*
X104799226Y-73960999D01*
X104518046Y-73960999D01*
X104258270Y-74068602D01*
X103982495Y-74123457D01*
X103748704Y-74279671D01*
X103488929Y-74387274D01*
X103450001Y-74426202D01*
X103411073Y-74387274D01*
X103151296Y-74279671D01*
X102917506Y-74123457D01*
X102641733Y-74068602D01*
X102381956Y-73960999D01*
X102100775Y-73960999D01*
X101825001Y-73906144D01*
X101549226Y-73960999D01*
X101268046Y-73960999D01*
X101008270Y-74068602D01*
X100732495Y-74123457D01*
X100498704Y-74279671D01*
X100238929Y-74387274D01*
X100200001Y-74426202D01*
X100161073Y-74387274D01*
X99901299Y-74279672D01*
X99667507Y-74123457D01*
X99391732Y-74068602D01*
X99131956Y-73960999D01*
X98850771Y-73960999D01*
X98575000Y-73906145D01*
X98537001Y-73913704D01*
X98499001Y-73906145D01*
X98223230Y-73960999D01*
X98018046Y-73960999D01*
X97828485Y-74039518D01*
X97406495Y-74123457D01*
X97048747Y-74362496D01*
X96988929Y-74387274D01*
X96943146Y-74433057D01*
X96714104Y-74586098D01*
X96714103Y-74586099D01*
X96480314Y-74742312D01*
X96324101Y-74976101D01*
X86630104Y-84670099D01*
X86396314Y-84826313D01*
X86240101Y-85060102D01*
X86240100Y-85060103D01*
X85985231Y-85441542D01*
X85777459Y-85752494D01*
X85615001Y-86569225D01*
X85615001Y-86569228D01*
X85560147Y-86844999D01*
X83990000Y-86844999D01*
X83990000Y-66967300D01*
X96294228Y-66967300D01*
X96608019Y-67812231D01*
X97221265Y-68472763D01*
X98040605Y-68848336D01*
X98208700Y-68881772D01*
X98570001Y-68533493D01*
X98570001Y-66605999D01*
X98580001Y-66605999D01*
X98580001Y-68533493D01*
X98941302Y-68881772D01*
X99109397Y-68848336D01*
X99928737Y-68472763D01*
X100200001Y-68180582D01*
X100471265Y-68472763D01*
X101290605Y-68848336D01*
X101458700Y-68881772D01*
X101820001Y-68533493D01*
X101820001Y-66605999D01*
X101830001Y-66605999D01*
X101830001Y-68533493D01*
X102191302Y-68881772D01*
X102359397Y-68848336D01*
X103178737Y-68472763D01*
X103450001Y-68180582D01*
X103721265Y-68472763D01*
X104540605Y-68848336D01*
X104708700Y-68881772D01*
X105070001Y-68533493D01*
X105070001Y-66605999D01*
X105080001Y-66605999D01*
X105080001Y-68533493D01*
X105441302Y-68881772D01*
X105609397Y-68848336D01*
X106428737Y-68472763D01*
X106700001Y-68180582D01*
X106971265Y-68472763D01*
X107790605Y-68848336D01*
X107958700Y-68881772D01*
X108320001Y-68533493D01*
X108320001Y-66605999D01*
X108330001Y-66605999D01*
X108330001Y-68533493D01*
X108691302Y-68881772D01*
X108859397Y-68848336D01*
X109678737Y-68472763D01*
X110291983Y-67812231D01*
X110605774Y-66967300D01*
X110257496Y-66605999D01*
X108330001Y-66605999D01*
X108320001Y-66605999D01*
X105080001Y-66605999D01*
X105070001Y-66605999D01*
X101830001Y-66605999D01*
X101820001Y-66605999D01*
X98580001Y-66605999D01*
X98570001Y-66605999D01*
X96642506Y-66605999D01*
X96294228Y-66967300D01*
X83990000Y-66967300D01*
X83990000Y-66234698D01*
X96294228Y-66234698D01*
X96642506Y-66595999D01*
X98570001Y-66595999D01*
X98570001Y-64668505D01*
X98580001Y-64668505D01*
X98580001Y-66595999D01*
X101820001Y-66595999D01*
X101820001Y-64668505D01*
X101830001Y-64668505D01*
X101830001Y-66595999D01*
X105070001Y-66595999D01*
X105070001Y-64668505D01*
X104708700Y-64320226D01*
X104540605Y-64353662D01*
X103721265Y-64729235D01*
X103450001Y-65021416D01*
X103178737Y-64729235D01*
X102359397Y-64353662D01*
X102191302Y-64320226D01*
X101830001Y-64668505D01*
X101820001Y-64668505D01*
X101458700Y-64320226D01*
X101290605Y-64353662D01*
X100471265Y-64729235D01*
X100200001Y-65021416D01*
X99928737Y-64729235D01*
X99109397Y-64353662D01*
X98941302Y-64320226D01*
X98580001Y-64668505D01*
X98570001Y-64668505D01*
X98208700Y-64320226D01*
X98040605Y-64353662D01*
X97221265Y-64729235D01*
X96608019Y-65389767D01*
X96294228Y-66234698D01*
X83990000Y-66234698D01*
X83990000Y-61961301D01*
X96144227Y-61961301D01*
X96177663Y-62129396D01*
X96553236Y-62948736D01*
X97213768Y-63561982D01*
X98058699Y-63875773D01*
X98420000Y-63527495D01*
X98420000Y-61600000D01*
X98430000Y-61600000D01*
X98430000Y-63527495D01*
X98791301Y-63875773D01*
X99636232Y-63561982D01*
X100296764Y-62948736D01*
X100672337Y-62129396D01*
X100705773Y-61961301D01*
X100357494Y-61600000D01*
X98430000Y-61600000D01*
X98420000Y-61600000D01*
X96492506Y-61600000D01*
X96144227Y-61961301D01*
X83990000Y-61961301D01*
X83990000Y-61228699D01*
X96144227Y-61228699D01*
X96492506Y-61590000D01*
X98420000Y-61590000D01*
X98420000Y-59662505D01*
X98430000Y-59662505D01*
X98430000Y-61590000D01*
X100357494Y-61590000D01*
X100705773Y-61228699D01*
X100672337Y-61060604D01*
X100296764Y-60241264D01*
X99636232Y-59628018D01*
X98791301Y-59314227D01*
X98430000Y-59662505D01*
X98420000Y-59662505D01*
X98058699Y-59314227D01*
X97213768Y-59628018D01*
X96553236Y-60241264D01*
X96177663Y-61060604D01*
X96144227Y-61228699D01*
X83990000Y-61228699D01*
X83990000Y-33402500D01*
X98590000Y-33402500D01*
X98590000Y-34820357D01*
X98819884Y-35375346D01*
X99244653Y-35800116D01*
X99799642Y-36030000D01*
X101217500Y-36030000D01*
X101595000Y-35652500D01*
X101595000Y-33025000D01*
X98967500Y-33025000D01*
X98590000Y-33402500D01*
X83990000Y-33402500D01*
X83990000Y-31219643D01*
X98590000Y-31219643D01*
X98590000Y-32637500D01*
X98967500Y-33015000D01*
X101595000Y-33015000D01*
X101595000Y-30387500D01*
X101217500Y-30010000D01*
X99799642Y-30010000D01*
X99244653Y-30239884D01*
X98819884Y-30664654D01*
X98590000Y-31219643D01*
X83990000Y-31219643D01*
X83990000Y-20490000D01*
X208110000Y-20490000D01*
X208110001Y-150960000D01*
G04 #@! TD*
M02*
